<svg width="123.8" height="65" viewBox="0 0 619 325" fill="none" xmlns="http://www.w3.org/2000/svg">
<g filter="url(#filter0_dd)">
<path fill-rule="evenodd" clip-rule="evenodd" d="M614.615 138.5C614.615 191.248 550.211 237.109 455.442 260.497V285C455.442 289.28 452.998 292.989 449.429 294.807C447.836 297.344 445.692 299.664 442.963 301.619L428.197 312.201C424.121 315.121 419.232 316.692 414.218 316.692H414.015H210.215H210.012C204.998 316.692 200.109 315.121 196.033 312.201L181.267 301.619C167.44 291.711 168.63 272.421 180.343 263.204C148.361 256.107 119.522 246.506 95.0392 234.958L22 277.128C14 281.746 4 275.973 4 266.735V177.535C4 170.77 9.36221 165.863 15.3748 165.534C12.2112 158.214 10.3076 150.686 9.77173 143H8.61508C6.40594 143 4.61508 141.209 4.61508 139C4.61508 136.791 6.40594 135 8.61508 135H9.70978C10.1036 127.731 11.7206 120.601 14.4703 113.651C8.83481 112.907 4 108.158 4 101.735V12.5346C4 3.29701 14 -2.4765 22 2.1423L92.8854 43.068C147.994 16.538 225.836 0 312.115 0C479.181 0 614.615 62.0086 614.615 138.5ZM167.037 192.141C170.527 192.766 173.964 193.078 177.349 193.078C180.631 193.078 183.599 192.792 186.256 192.219C188.964 191.698 191.36 191.021 193.443 190.188C195.579 189.354 197.428 188.443 198.99 187.453C200.553 186.516 201.855 185.604 202.896 184.719C203.938 183.885 204.719 183.182 205.24 182.609C205.761 181.984 206.047 181.646 206.099 181.594L202.896 179.094C199.823 182.01 196.724 184.042 193.599 185.188C190.527 186.333 187.323 186.906 183.99 186.906C181.751 186.906 179.172 186.568 176.256 185.891C173.339 185.266 170.162 184.458 166.724 183.469C163.339 182.531 159.745 181.49 155.943 180.344C152.141 179.146 148.261 178.026 144.303 176.984C148.365 173.599 152.219 169.823 155.865 165.656C159.511 161.438 163.053 156.958 166.49 152.219C173.782 150.604 180.657 148.365 187.115 145.5C193.573 142.583 199.511 139.276 204.928 135.578C210.344 131.88 215.188 127.87 219.459 123.547C223.73 119.172 227.349 114.745 230.318 110.266C233.287 105.734 235.553 101.229 237.115 96.75C238.678 92.2188 239.459 87.9219 239.459 83.8594C239.459 81.3594 239.12 79.1719 238.443 77.2969C237.766 75.4219 236.829 73.8854 235.631 72.6875C234.433 71.4375 233.027 70.526 231.412 69.9531C229.797 69.3281 228.053 69.0156 226.178 69.0156C221.386 69.0156 216.907 70.2135 212.74 72.6094C208.573 74.9531 204.589 78.1302 200.787 82.1406C197.037 86.151 193.417 90.8385 189.928 96.2031C186.438 101.516 182.974 107.141 179.537 113.078C176.099 119.016 172.636 125.083 169.146 131.281C165.709 137.479 162.141 143.469 158.443 149.25C156.099 149.615 153.73 149.875 151.334 150.031C148.99 150.188 146.594 150.266 144.146 150.266C138.157 150.266 132.428 149.51 126.959 148C121.542 146.49 116.777 144.302 112.662 141.438C108.547 138.521 105.266 134.979 102.818 130.812C100.37 126.594 99.1463 121.828 99.1463 116.516C99.1463 111.776 100.032 107.323 101.803 103.156C103.626 98.9375 106.204 95.2656 109.537 92.1406C112.922 89.0156 117.037 86.5677 121.881 84.7969C126.777 82.974 132.297 82.0625 138.443 82.0625C141.933 82.0625 145.188 82.349 148.209 82.9219C151.23 83.4948 153.834 84.1198 156.021 84.7969C158.209 85.474 159.928 86.125 161.178 86.75C162.428 87.3229 163.079 87.6094 163.131 87.6094L165.162 84.0938C165.006 84.0417 164.224 83.6771 162.818 83C161.412 82.3229 159.459 81.6198 156.959 80.8906C154.511 80.1615 151.594 79.4844 148.209 78.8594C144.823 78.2344 141.073 77.9219 136.959 77.9219C130.448 77.9219 124.355 78.8073 118.678 80.5781C113.001 82.2969 108.053 84.8229 103.834 88.1562C99.6672 91.4375 96.3859 95.5 93.9901 100.344C91.5943 105.188 90.3963 110.734 90.3963 116.984C90.3963 122.297 91.5422 127.271 93.8338 131.906C96.1776 136.49 99.563 140.5 103.99 143.938C108.417 147.323 113.834 150.005 120.24 151.984C126.646 153.911 133.938 154.875 142.115 154.875C144.355 154.875 146.568 154.823 148.756 154.719C150.943 154.562 153.105 154.354 155.24 154.094C152.428 158.208 149.537 162.062 146.568 165.656C143.599 169.25 140.474 172.479 137.193 175.344C133.808 174.615 130.474 174.016 127.193 173.547C123.912 173.078 120.657 172.844 117.428 172.844C110.032 172.844 104.511 173.729 100.865 175.5C97.2193 177.271 95.3963 179.797 95.3963 183.078C95.3963 185.578 96.5161 187.583 98.7557 189.094C100.995 190.604 104.224 191.359 108.443 191.359C113.391 191.359 118.105 190.63 122.584 189.172C127.063 187.766 131.36 185.812 135.474 183.312C138.912 184.406 142.402 185.526 145.943 186.672C149.485 187.818 153.027 188.859 156.568 189.797C160.11 190.786 163.599 191.568 167.037 192.141ZM217.818 76.4375C220.683 74.3542 223.573 73.3125 226.49 73.3125C227.688 73.3125 228.808 73.4948 229.849 73.8594C230.943 74.224 231.881 74.8229 232.662 75.6562C233.495 76.4896 234.146 77.5833 234.615 78.9375C235.084 80.2396 235.318 81.8542 235.318 83.7812C235.318 87.4792 234.589 91.3594 233.131 95.4219C231.672 99.4323 229.563 103.495 226.803 107.609C224.094 111.724 220.787 115.76 216.881 119.719C213.027 123.625 208.678 127.297 203.834 130.734C199.042 134.172 193.808 137.271 188.131 140.031C182.506 142.792 176.568 145.031 170.318 146.75C174.068 141.177 177.662 135.5 181.099 129.719C184.537 123.938 187.844 118.339 191.021 112.922C194.198 107.453 197.271 102.323 200.24 97.5312C203.261 92.6875 206.23 88.4948 209.146 84.9531C212.063 81.3594 214.954 78.5208 217.818 76.4375ZM118.912 185.656C115.474 186.75 111.829 187.297 107.974 187.297C106.204 187.297 104.771 187.141 103.678 186.828C102.584 186.568 101.724 186.229 101.099 185.812C100.474 185.396 100.032 184.927 99.7713 184.406C99.563 183.938 99.4588 183.495 99.4588 183.078C99.4588 181.724 100.266 180.526 101.881 179.484C103.547 178.443 106.152 177.922 109.693 177.922C112.662 177.922 115.735 178.234 118.912 178.859C122.141 179.484 125.474 180.292 128.912 181.281C125.683 183.156 122.349 184.615 118.912 185.656ZM246.881 173.781C249.224 171.385 251.594 168.781 253.99 165.969C253.157 167.792 252.506 169.51 252.037 171.125C251.62 172.74 251.412 174.224 251.412 175.578C251.412 176.724 251.62 177.818 252.037 178.859C252.454 179.901 253.027 180.812 253.756 181.594C254.485 182.375 255.37 183 256.412 183.469C257.506 183.938 258.73 184.172 260.084 184.172C262.271 184.172 264.485 183.573 266.724 182.375C268.964 181.125 271.125 179.562 273.209 177.688C275.292 175.76 277.271 173.651 279.146 171.359C281.021 169.068 282.688 166.88 284.146 164.797C285.605 162.714 286.829 160.865 287.818 159.25C288.808 157.635 289.459 156.568 289.771 156.047C290.605 154.693 291.594 153.156 292.74 151.438C293.938 149.667 295.214 147.87 296.568 146.047C297.974 144.172 299.459 142.349 301.021 140.578C302.584 138.807 304.146 137.245 305.709 135.891C307.271 134.484 308.834 133.365 310.396 132.531C311.959 131.646 313.443 131.203 314.849 131.203C316.464 131.203 317.636 131.906 318.365 133.312C319.094 134.719 319.563 136.646 319.771 139.094C320.032 141.49 320.136 144.328 320.084 147.609C320.032 150.839 320.058 154.328 320.162 158.078V158.391C317.402 161.984 314.719 165.344 312.115 168.469C309.563 171.594 307.115 174.328 304.771 176.672C302.428 179.016 300.188 180.865 298.053 182.219C295.969 183.573 294.042 184.25 292.271 184.25C292.011 184.25 291.75 184.224 291.49 184.172C291.23 184.172 291.021 184.12 290.865 184.016C291.23 183.443 291.49 182.792 291.646 182.062C291.803 181.333 291.881 180.682 291.881 180.109C291.881 178.755 291.412 177.583 290.474 176.594C289.589 175.604 288.573 175.109 287.428 175.109C286.125 175.109 285.136 175.63 284.459 176.672C283.73 177.661 283.365 178.703 283.365 179.797C283.365 182.141 284.146 184.068 285.709 185.578C287.271 187.141 289.459 187.922 292.271 187.922C294.303 187.922 296.36 187.375 298.443 186.281C300.579 185.24 302.792 183.729 305.084 181.75C307.375 179.719 309.771 177.271 312.271 174.406C314.771 171.49 317.48 168.234 320.396 164.641C320.605 169.276 320.969 173.104 321.49 176.125C322.011 179.146 322.766 181.542 323.756 183.312C324.745 185.083 325.969 186.307 327.428 186.984C328.886 187.714 330.657 188.078 332.74 188.078C335.084 188.078 337.48 187.375 339.928 185.969C342.375 184.562 344.745 182.792 347.037 180.656C349.329 178.469 351.516 176.073 353.599 173.469C355.226 171.436 356.709 169.482 358.05 167.608C357.948 168.527 357.896 169.438 357.896 170.344C357.896 172.635 358.209 174.719 358.834 176.594C359.459 178.417 360.37 179.979 361.568 181.281C362.714 182.531 364.068 183.495 365.631 184.172C367.245 184.901 369.042 185.266 371.021 185.266C373.365 185.266 375.683 184.771 377.974 183.781C380.266 182.844 382.558 181.542 384.849 179.875C387.193 178.156 389.537 176.125 391.881 173.781C394.224 171.385 396.594 168.781 398.99 165.969C398.157 167.792 397.506 169.51 397.037 171.125C396.62 172.74 396.412 174.224 396.412 175.578C396.412 176.724 396.62 177.818 397.037 178.859C397.454 179.901 398.027 180.812 398.756 181.594C399.485 182.375 400.37 183 401.412 183.469C402.506 183.938 403.73 184.172 405.084 184.172C407.271 184.172 409.485 183.573 411.724 182.375C413.964 181.125 416.125 179.562 418.209 177.688C420.292 175.76 422.271 173.651 424.146 171.359C426.021 169.068 427.688 166.88 429.146 164.797C430.605 162.714 431.829 160.865 432.818 159.25C433.808 157.635 434.459 156.568 434.771 156.047C436.073 153.859 437.428 151.646 438.834 149.406C440.24 147.115 441.542 145.057 442.74 143.234C444.094 141.099 445.422 138.99 446.724 136.906C447.193 137.688 447.766 138.365 448.443 138.938C449.172 139.458 449.849 139.979 450.474 140.5C451.152 140.969 451.698 141.464 452.115 141.984C452.584 142.505 452.818 143.104 452.818 143.781C452.818 144.719 452.506 145.839 451.881 147.141C451.256 148.443 450.266 150.188 448.912 152.375C447.558 154.51 446.204 156.88 444.849 159.484C443.495 162.089 442.297 164.797 441.256 167.609C440.266 170.37 439.771 173.026 439.771 175.578C439.771 177.453 440.058 179.094 440.631 180.5C441.204 181.854 441.985 183 442.974 183.938C443.964 184.875 445.11 185.552 446.412 185.969C447.714 186.438 449.094 186.672 450.553 186.672C453.209 186.672 455.709 186.073 458.053 184.875C460.396 183.677 462.558 182.141 464.537 180.266C466.568 178.391 468.417 176.281 470.084 173.938C471.803 171.594 473.365 169.302 474.771 167.062C475.104 166.52 475.427 165.987 475.74 165.465C475.667 166.354 475.631 167.251 475.631 168.156C475.631 171.802 476.334 174.849 477.74 177.297C479.094 179.745 480.813 181.698 482.896 183.156C485.032 184.615 487.349 185.656 489.849 186.281C492.349 186.906 494.719 187.219 496.959 187.219C500.032 187.219 503.261 186.672 506.646 185.578C510.032 184.484 513.469 182.714 516.959 180.266C520.501 177.818 524.042 174.641 527.584 170.734C531.126 166.776 534.615 161.932 538.053 156.203L535.396 153.859C529.094 163.911 522.766 171.255 516.412 175.891C510.058 180.526 503.469 182.844 496.646 182.844C494.615 182.844 492.792 182.479 491.178 181.75C489.615 181.021 488.287 180.031 487.193 178.781C486.152 177.479 485.344 175.995 484.771 174.328C484.251 172.609 483.99 170.812 483.99 168.938C483.99 168.312 484.016 167.688 484.068 167.062C484.12 166.438 484.198 165.812 484.303 165.188C487.115 165.135 490.084 164.771 493.209 164.094C496.334 163.417 499.433 162.505 502.506 161.359C505.579 160.214 508.521 158.833 511.334 157.219C514.146 155.552 516.62 153.703 518.756 151.672C520.891 149.589 522.584 147.349 523.834 144.953C525.136 142.505 525.787 139.901 525.787 137.141C525.787 135.109 525.422 133.365 524.693 131.906C524.016 130.448 523.105 129.276 521.959 128.391C520.865 127.505 519.615 126.854 518.209 126.438C516.803 126.021 515.422 125.812 514.068 125.812C511.985 125.812 509.589 126.333 506.881 127.375C504.172 128.365 501.386 129.771 498.521 131.594C495.709 133.417 492.922 135.63 490.162 138.234C487.402 140.786 484.954 143.625 482.818 146.75C481.231 149.072 479.874 151.539 478.748 154.149L478.365 153.859C477.428 155.318 476.36 157.036 475.162 159.016C473.964 160.943 472.662 162.974 471.256 165.109C469.849 167.245 468.365 169.354 466.803 171.438C465.292 173.469 463.704 175.292 462.037 176.906C460.422 178.521 458.756 179.849 457.037 180.891C455.37 181.88 453.678 182.375 451.959 182.375C451.438 182.375 450.891 182.323 450.318 182.219C449.797 182.115 449.303 181.906 448.834 181.594C448.365 181.281 447.974 180.839 447.662 180.266C447.402 179.641 447.271 178.833 447.271 177.844C447.271 176.542 447.454 175.188 447.818 173.781C448.183 172.375 448.652 170.969 449.224 169.562C449.849 168.156 450.527 166.776 451.256 165.422C452.037 164.016 452.818 162.635 453.599 161.281C454.902 159.042 455.969 157.089 456.803 155.422C457.688 153.703 458.365 152.219 458.834 150.969C459.355 149.719 459.719 148.651 459.928 147.766C460.136 146.88 460.24 146.125 460.24 145.5C460.24 144.875 460.162 144.38 460.006 144.016C459.902 143.599 459.563 143.104 458.99 142.531C458.469 141.906 457.61 141.099 456.412 140.109C455.214 139.068 453.573 137.609 451.49 135.734C450.917 135.266 450.527 134.771 450.318 134.25C450.162 133.677 450.084 133.104 450.084 132.531C450.084 131.75 450.188 131.021 450.396 130.344C450.657 129.667 450.839 129.172 450.943 128.859L448.678 127.688L431.959 153.859C430.136 156.568 428.079 159.484 425.787 162.609C423.547 165.682 421.23 168.521 418.834 171.125C416.49 173.729 414.146 175.891 411.803 177.609C409.511 179.328 407.402 180.161 405.474 180.109C404.797 180.109 404.303 179.875 403.99 179.406C403.678 178.938 403.521 178.339 403.521 177.609C403.521 175.839 404.146 173.443 405.396 170.422C406.698 167.401 408.417 163.859 410.553 159.797C412.74 155.682 415.214 151.073 417.974 145.969C420.787 140.812 423.704 135.266 426.724 129.328L421.021 126.516C419.563 129.12 417.662 132.271 415.318 135.969C413.027 139.667 410.474 143.547 407.662 147.609C404.849 151.672 401.855 155.708 398.678 159.719C395.553 163.677 392.402 167.245 389.224 170.422C386.099 173.599 383.027 176.177 380.006 178.156C377.037 180.135 374.303 181.125 371.803 181.125C369.511 181.125 367.948 180.37 367.115 178.859C366.334 177.349 365.943 175.526 365.943 173.391C365.943 170.214 366.646 166.776 368.053 163.078C369.459 159.328 371.178 155.604 373.209 151.906C375.292 148.156 377.48 144.536 379.771 141.047C382.115 137.557 384.224 134.432 386.099 131.672L382.74 129.328C380.084 131.828 377.271 134.693 374.303 137.922C371.386 141.151 368.704 144.562 366.256 148.156C364.976 150.076 363.814 152.026 362.772 154.006L362.584 153.859C361.646 155.37 360.5 157.167 359.146 159.25C357.844 161.281 356.412 163.391 354.849 165.578C353.287 167.766 351.62 169.927 349.849 172.062C348.131 174.198 346.386 176.125 344.615 177.844C342.844 179.51 341.073 180.865 339.303 181.906C337.584 182.948 335.943 183.469 334.381 183.469C333.131 183.469 332.141 182.87 331.412 181.672C330.735 180.474 330.214 178.677 329.849 176.281C329.537 173.833 329.303 170.76 329.146 167.062C329.042 163.365 328.938 158.99 328.834 153.938C331.698 150.344 334.303 147.115 336.646 144.25C338.99 141.333 341.099 138.859 342.974 136.828C344.902 134.797 346.594 133.234 348.053 132.141C349.563 131.047 350.891 130.5 352.037 130.5C351.777 131.125 351.594 131.75 351.49 132.375C351.438 133 351.412 133.443 351.412 133.703C351.412 134.901 351.803 135.969 352.584 136.906C353.365 137.792 354.407 138.234 355.709 138.234C357.063 138.234 358.105 137.714 358.834 136.672C359.563 135.63 359.928 134.432 359.928 133.078C359.928 132.609 359.849 132.01 359.693 131.281C359.537 130.552 359.198 129.849 358.678 129.172C358.157 128.443 357.428 127.818 356.49 127.297C355.553 126.776 354.277 126.516 352.662 126.516C351.099 126.516 349.511 126.932 347.896 127.766C346.282 128.599 344.511 129.875 342.584 131.594C340.709 133.312 338.625 135.5 336.334 138.156C334.094 140.812 331.516 143.964 328.599 147.609C328.339 143.339 327.818 139.875 327.037 137.219C326.308 134.51 325.37 132.427 324.224 130.969C323.079 129.458 321.724 128.443 320.162 127.922C318.652 127.401 316.959 127.141 315.084 127.141C313.105 127.141 311.152 127.635 309.224 128.625C307.297 129.615 305.422 130.917 303.599 132.531C301.777 134.094 300.032 135.865 298.365 137.844C296.698 139.823 295.136 141.802 293.678 143.781C292.271 145.76 290.995 147.635 289.849 149.406C288.704 151.177 287.74 152.661 286.959 153.859C285.136 156.568 283.079 159.484 280.787 162.609C278.547 165.682 276.23 168.521 273.834 171.125C271.49 173.729 269.146 175.891 266.803 177.609C264.511 179.328 262.402 180.161 260.474 180.109C259.797 180.109 259.303 179.875 258.99 179.406C258.678 178.938 258.521 178.339 258.521 177.609C258.521 175.839 259.146 173.443 260.396 170.422C261.698 167.401 263.417 163.859 265.553 159.797C267.74 155.682 270.214 151.073 272.974 145.969C275.787 140.812 278.704 135.266 281.724 129.328L276.021 126.516C274.563 129.12 272.662 132.271 270.318 135.969C268.027 139.667 265.474 143.547 262.662 147.609C259.849 151.672 256.855 155.708 253.678 159.719C250.553 163.677 247.402 167.245 244.224 170.422C241.099 173.599 238.027 176.177 235.006 178.156C232.037 180.135 229.303 181.125 226.803 181.125C224.511 181.125 222.948 180.37 222.115 178.859C221.334 177.349 220.943 175.526 220.943 173.391C220.943 170.214 221.646 166.776 223.053 163.078C224.459 159.328 226.178 155.604 228.209 151.906C230.292 148.156 232.48 144.536 234.771 141.047C237.115 137.557 239.224 134.432 241.099 131.672L237.74 129.328C235.084 131.828 232.271 134.693 229.303 137.922C226.386 141.151 223.704 144.562 221.256 148.156C218.86 151.75 216.881 155.448 215.318 159.25C213.704 163.052 212.896 166.75 212.896 170.344C212.896 172.635 213.209 174.719 213.834 176.594C214.459 178.417 215.37 179.979 216.568 181.281C217.714 182.531 219.068 183.495 220.631 184.172C222.245 184.901 224.042 185.266 226.021 185.266C228.365 185.266 230.683 184.771 232.974 183.781C235.266 182.844 237.558 181.542 239.849 179.875C242.193 178.156 244.537 176.125 246.881 173.781ZM494.771 159.641C491.698 160.734 488.417 161.464 484.928 161.828C486.49 157.349 488.521 153.156 491.021 149.25C493.573 145.344 496.282 141.958 499.146 139.094C502.011 136.177 504.876 133.911 507.74 132.297C510.605 130.63 513.183 129.797 515.474 129.797C516.516 129.797 517.402 130.214 518.131 131.047C518.912 131.88 519.303 133 519.303 134.406C519.303 135.812 518.938 137.401 518.209 139.172C517.48 140.943 516.438 142.792 515.084 144.719C513.73 146.646 512.037 148.547 510.006 150.422C508.027 152.297 505.761 154.042 503.209 155.656C500.657 157.219 497.844 158.547 494.771 159.641Z" fill="#fff"/>
</g>
<defs>
<filter id="filter0_dd" x="0" y="0" width="618.615" height="324.692" filterUnits="userSpaceOnUse" color-interpolation-filters="sRGB">
<feFlood flood-opacity="0" result="BackgroundImageFix"/>
<feColorMatrix in="SourceAlpha" type="matrix" values="0 0 0 0 0 0 0 0 0 0 0 0 0 0 0 0 0 0 127 0"/>
<feOffset dy="4"/>
<feGaussianBlur stdDeviation="2"/>
<feColorMatrix type="matrix" values="0 0 0 0 0 0 0 0 0 0 0 0 0 0 0 0 0 0 0.25 0"/>
<feBlend mode="normal" in2="BackgroundImageFix" result="effect1_dropShadow"/>
<feColorMatrix in="SourceAlpha" type="matrix" values="0 0 0 0 0 0 0 0 0 0 0 0 0 0 0 0 0 0 127 0"/>
<feOffset dy="4"/>
<feGaussianBlur stdDeviation="2"/>
<feColorMatrix type="matrix" values="0 0 0 0 0 0 0 0 0 0 0 0 0 0 0 0 0 0 0.25 0"/>
<feBlend mode="normal" in2="effect1_dropShadow" result="effect2_dropShadow"/>
<feBlend mode="normal" in="SourceGraphic" in2="effect2_dropShadow" result="shape"/>
</filter>
</defs>
</svg>
