<svg width="654" height="352" viewBox="0 0 654 352" fill="none" xmlns="http://www.w3.org/2000/svg">
<path d="M43.3849 39.5346C43.3849 30.297 53.3849 24.5235 61.3849 29.1423L138.635 73.7426C146.635 78.3614 146.635 89.9084 138.635 94.5272L61.3849 139.128C53.3849 143.746 43.3849 137.973 43.3849 128.735L43.3849 39.5346Z" fill="#152545"/>
<path d="M43.3849 204.535C43.3849 195.297 53.3849 189.524 61.3849 194.142L138.635 238.743C146.635 243.361 146.635 254.908 138.635 259.527L61.3849 304.128C53.3849 308.746 43.3849 302.973 43.3849 293.735L43.3849 204.535Z" fill="#152545"/>
<path d="M355.426 266.172L472.069 285.939C492.655 289.427 498.808 316.024 481.847 328.199L467.104 338.783C463.109 341.65 458.316 343.192 453.4 343.192H249.6C244.684 343.192 239.891 341.65 235.896 338.783L221.153 328.199C204.192 316.024 210.345 289.427 230.931 285.939L347.574 266.172C350.173 265.732 352.827 265.732 355.426 266.172Z" fill="#152545" stroke="#505457"/>
<mask id="mask0" mask-type="alpha" maskUnits="userSpaceOnUse" x="210" y="265" width="283" height="79">
<path d="M347.497 265.677C350.147 265.229 352.853 265.229 355.503 265.677L472.372 285.447C493.409 289.006 499.691 316.192 482.348 328.619L467.582 339.201C463.506 342.121 458.617 343.692 453.603 343.692H249.397C244.383 343.692 239.494 342.121 235.418 339.201L220.652 328.619C203.309 316.192 209.591 289.006 230.628 285.447L347.497 265.677Z" fill="black"/>
</mask>
<g mask="url(#mask0)">
<rect x="455.788" y="267.231" width="39.0385" height="55.7692" rx="11" fill="#C2F0FF"/>
</g>
<ellipse cx="351.5" cy="165.5" rx="302.5" ry="138.5" fill="#A9AEB3"/>
<path fill-rule="evenodd" clip-rule="evenodd" d="M554.209 246.952C551.976 248.013 549.699 249.058 547.379 250.084C497.355 272.228 428.036 286 351.31 286C274.585 286 205.266 272.228 155.242 250.084C152.922 249.058 150.645 248.013 148.412 246.952C147.755 246.77 147.101 246.522 146.457 246.205L113 229.756C161.994 265.284 250.395 289 351.31 289C452.225 289 540.627 265.284 589.621 229.756L556.164 246.205C555.52 246.522 554.866 246.77 554.209 246.952ZM589.621 101.244C540.627 65.7162 452.225 42 351.31 42C250.395 42 161.994 65.7163 113 101.244L146.457 84.7946C147.101 84.4779 147.755 84.2304 148.412 84.0479C150.645 82.9867 152.922 81.9424 155.242 80.9156C205.266 58.7722 274.585 45 351.31 45C428.036 45 497.355 58.7722 547.379 80.9156C549.699 81.9424 551.976 82.9867 554.209 84.0479C554.866 84.2303 555.52 84.4778 556.164 84.7946L589.621 101.244Z" fill="#C4C4C4"/>
<path fill-rule="evenodd" clip-rule="evenodd" d="M545.963 228.827C544.705 229.289 543.433 229.746 542.148 230.199C493.499 247.341 426.095 258 351.5 258C276.905 258 209.501 247.341 160.852 230.199C159.567 229.746 158.295 229.289 157.037 228.827C155.673 228.843 154.272 228.601 152.892 228.061L120 215.188C167.594 242.661 253.469 261 351.5 261C449.531 261 535.406 242.661 583 215.188L550.108 228.061C548.728 228.601 547.327 228.843 545.963 228.827ZM583 115.812C535.406 88.3392 449.531 70 351.5 70C253.469 70 167.594 88.3393 120 115.812L152.892 102.939C154.272 102.399 155.673 102.157 157.037 102.173C158.295 101.711 159.567 101.254 160.852 100.801C209.501 83.6586 276.905 73 351.5 73C426.095 73 493.499 83.6586 542.148 100.801C543.433 101.254 544.705 101.711 545.963 102.173C547.327 102.157 548.728 102.399 550.108 102.939L583 115.812Z" fill="#C4C4C4"/>
<rect x="256" y="309" width="14" height="14" rx="5" fill="#C2F0FF"/>
<rect x="235" y="309" width="14" height="14" rx="5" fill="#C2F0FF"/>
<rect x="277" y="309" width="14" height="14" rx="5" fill="#C2F0FF"/>
<rect x="298" y="309" width="14" height="14" rx="5" fill="#C2F0FF"/>
<rect x="319" y="309" width="14" height="14" rx="5" fill="#C2F0FF"/>
<rect x="340" y="309" width="14" height="14" rx="5" fill="#C2F0FF"/>
<rect x="361" y="309" width="14" height="14" rx="5" fill="#C2F0FF"/>
<rect x="382" y="309" width="14" height="14" rx="5" fill="#C2F0FF"/>
<rect x="403" y="309" width="14" height="14" rx="5" fill="#C2F0FF"/>
<rect x="429" y="305" width="14" height="36" rx="5" fill="#C4C4C4"/>
<rect x="432" y="310" width="8" height="8" rx="4" fill="#C2F0FF"/>
<circle cx="440.5" cy="321.5" r="1.5" fill="black"/>
<path d="M216.734 220.078C213.349 220.078 209.911 219.766 206.422 219.141C202.984 218.568 199.495 217.786 195.953 216.797C192.411 215.859 188.87 214.818 185.328 213.672C181.786 212.526 178.297 211.406 174.859 210.312C170.745 212.812 166.448 214.766 161.969 216.172C157.49 217.63 152.776 218.359 147.828 218.359C143.609 218.359 140.38 217.604 138.141 216.094C135.901 214.583 134.781 212.578 134.781 210.078C134.781 206.797 136.604 204.271 140.25 202.5C143.896 200.729 149.417 199.844 156.812 199.844C160.042 199.844 163.297 200.078 166.578 200.547C169.859 201.016 173.193 201.615 176.578 202.344C179.859 199.479 182.984 196.25 185.953 192.656C188.922 189.062 191.812 185.208 194.625 181.094C192.49 181.354 190.328 181.562 188.141 181.719C185.953 181.823 183.74 181.875 181.5 181.875C173.323 181.875 166.031 180.911 159.625 178.984C153.219 177.005 147.802 174.323 143.375 170.938C138.948 167.5 135.562 163.49 133.219 158.906C130.927 154.271 129.781 149.297 129.781 143.984C129.781 137.734 130.979 132.188 133.375 127.344C135.771 122.5 139.052 118.438 143.219 115.156C147.438 111.823 152.385 109.297 158.062 107.578C163.74 105.807 169.833 104.922 176.344 104.922C180.458 104.922 184.208 105.234 187.594 105.859C190.979 106.484 193.896 107.161 196.344 107.891C198.844 108.62 200.797 109.323 202.203 110C203.609 110.677 204.391 111.042 204.547 111.094L202.516 114.609C202.464 114.609 201.812 114.323 200.562 113.75C199.312 113.125 197.594 112.474 195.406 111.797C193.219 111.12 190.615 110.495 187.594 109.922C184.573 109.349 181.318 109.062 177.828 109.062C171.682 109.062 166.161 109.974 161.266 111.797C156.422 113.568 152.307 116.016 148.922 119.141C145.589 122.266 143.01 125.938 141.188 130.156C139.417 134.323 138.531 138.776 138.531 143.516C138.531 148.828 139.755 153.594 142.203 157.812C144.651 161.979 147.932 165.521 152.047 168.438C156.161 171.302 160.927 173.49 166.344 175C171.812 176.51 177.542 177.266 183.531 177.266C185.979 177.266 188.375 177.188 190.719 177.031C193.115 176.875 195.484 176.615 197.828 176.25C201.526 170.469 205.094 164.479 208.531 158.281C212.021 152.083 215.484 146.016 218.922 140.078C222.359 134.141 225.823 128.516 229.312 123.203C232.802 117.839 236.422 113.151 240.172 109.141C243.974 105.13 247.958 101.953 252.125 99.6094C256.292 97.2135 260.771 96.0156 265.562 96.0156C267.438 96.0156 269.182 96.3281 270.797 96.9531C272.411 97.526 273.818 98.4375 275.016 99.6875C276.214 100.885 277.151 102.422 277.828 104.297C278.505 106.172 278.844 108.359 278.844 110.859C278.844 114.922 278.062 119.219 276.5 123.75C274.938 128.229 272.672 132.734 269.703 137.266C266.734 141.745 263.115 146.172 258.844 150.547C254.573 154.87 249.729 158.88 244.312 162.578C238.896 166.276 232.958 169.583 226.5 172.5C220.042 175.365 213.167 177.604 205.875 179.219C202.438 183.958 198.896 188.438 195.25 192.656C191.604 196.823 187.75 200.599 183.688 203.984C187.646 205.026 191.526 206.146 195.328 207.344C199.13 208.49 202.724 209.531 206.109 210.469C209.547 211.458 212.724 212.266 215.641 212.891C218.557 213.568 221.135 213.906 223.375 213.906C226.708 213.906 229.911 213.333 232.984 212.188C236.109 211.042 239.208 209.01 242.281 206.094L245.484 208.594C245.432 208.646 245.146 208.984 244.625 209.609C244.104 210.182 243.323 210.885 242.281 211.719C241.24 212.604 239.938 213.516 238.375 214.453C236.812 215.443 234.964 216.354 232.828 217.188C230.745 218.021 228.349 218.698 225.641 219.219C222.984 219.792 220.016 220.078 216.734 220.078ZM265.875 100.312C262.958 100.312 260.068 101.354 257.203 103.438C254.339 105.521 251.448 108.359 248.531 111.953C245.615 115.495 242.646 119.688 239.625 124.531C236.656 129.323 233.583 134.453 230.406 139.922C227.229 145.339 223.922 150.938 220.484 156.719C217.047 162.5 213.453 168.177 209.703 173.75C215.953 172.031 221.891 169.792 227.516 167.031C233.193 164.271 238.427 161.172 243.219 157.734C248.062 154.297 252.411 150.625 256.266 146.719C260.172 142.76 263.479 138.724 266.188 134.609C268.948 130.495 271.057 126.432 272.516 122.422C273.974 118.359 274.703 114.479 274.703 110.781C274.703 108.854 274.469 107.24 274 105.938C273.531 104.583 272.88 103.49 272.047 102.656C271.266 101.823 270.328 101.224 269.234 100.859C268.193 100.495 267.073 100.312 265.875 100.312ZM147.359 214.297C151.214 214.297 154.859 213.75 158.297 212.656C161.734 211.615 165.068 210.156 168.297 208.281C164.859 207.292 161.526 206.484 158.297 205.859C155.12 205.234 152.047 204.922 149.078 204.922C145.536 204.922 142.932 205.443 141.266 206.484C139.651 207.526 138.844 208.724 138.844 210.078C138.844 210.495 138.948 210.938 139.156 211.406C139.417 211.927 139.859 212.396 140.484 212.812C141.109 213.229 141.969 213.568 143.062 213.828C144.156 214.141 145.589 214.297 147.359 214.297ZM293.375 192.969C290.979 195.781 288.609 198.385 286.266 200.781C283.922 203.125 281.578 205.156 279.234 206.875C276.943 208.542 274.651 209.844 272.359 210.781C270.068 211.771 267.75 212.266 265.406 212.266C263.427 212.266 261.63 211.901 260.016 211.172C258.453 210.495 257.099 209.531 255.953 208.281C254.755 206.979 253.844 205.417 253.219 203.594C252.594 201.719 252.281 199.635 252.281 197.344C252.281 193.75 253.089 190.052 254.703 186.25C256.266 182.448 258.245 178.75 260.641 175.156C263.089 171.562 265.771 168.151 268.688 164.922C271.656 161.693 274.469 158.828 277.125 156.328L280.484 158.672C278.609 161.432 276.5 164.557 274.156 168.047C271.865 171.536 269.677 175.156 267.594 178.906C265.562 182.604 263.844 186.328 262.438 190.078C261.031 193.776 260.328 197.214 260.328 200.391C260.328 202.526 260.719 204.349 261.5 205.859C262.333 207.37 263.896 208.125 266.188 208.125C268.688 208.125 271.422 207.135 274.391 205.156C277.411 203.177 280.484 200.599 283.609 197.422C286.786 194.245 289.938 190.677 293.062 186.719C296.24 182.708 299.234 178.672 302.047 174.609C304.859 170.547 307.411 166.667 309.703 162.969C312.047 159.271 313.948 156.12 315.406 153.516L321.109 156.328C318.089 162.266 315.172 167.812 312.359 172.969C309.599 178.073 307.125 182.682 304.938 186.797C302.802 190.859 301.083 194.401 299.781 197.422C298.531 200.443 297.906 202.839 297.906 204.609C297.906 205.339 298.062 205.938 298.375 206.406C298.688 206.875 299.182 207.109 299.859 207.109C301.786 207.161 303.896 206.328 306.188 204.609C308.531 202.891 310.875 200.729 313.219 198.125C315.615 195.521 317.932 192.682 320.172 189.609C322.464 186.484 324.521 183.568 326.344 180.859L329.156 183.047C328.844 183.568 328.193 184.635 327.203 186.25C326.214 187.865 324.99 189.714 323.531 191.797C322.073 193.88 320.406 196.068 318.531 198.359C316.656 200.651 314.677 202.76 312.594 204.688C310.51 206.562 308.349 208.125 306.109 209.375C303.87 210.573 301.656 211.172 299.469 211.172C298.115 211.172 296.891 210.938 295.797 210.469C294.755 210 293.87 209.375 293.141 208.594C292.411 207.812 291.839 206.901 291.422 205.859C291.005 204.818 290.797 203.724 290.797 202.578C290.797 201.224 291.005 199.74 291.422 198.125C291.891 196.51 292.542 194.792 293.375 192.969ZM359.547 185.078C359.443 181.328 359.417 177.839 359.469 174.609C359.521 171.328 359.417 168.49 359.156 166.094C358.948 163.646 358.479 161.719 357.75 160.312C357.021 158.906 355.849 158.203 354.234 158.203C352.828 158.203 351.344 158.646 349.781 159.531C348.219 160.365 346.656 161.484 345.094 162.891C343.531 164.245 341.969 165.807 340.406 167.578C338.844 169.349 337.359 171.172 335.953 173.047C334.599 174.87 333.323 176.667 332.125 178.438C330.979 180.156 329.99 181.693 329.156 183.047L326.344 180.859C327.125 179.661 328.089 178.177 329.234 176.406C330.38 174.635 331.656 172.76 333.062 170.781C334.521 168.802 336.083 166.823 337.75 164.844C339.417 162.865 341.161 161.094 342.984 159.531C344.807 157.917 346.682 156.615 348.609 155.625C350.536 154.635 352.49 154.141 354.469 154.141C356.344 154.141 358.036 154.401 359.547 154.922C361.109 155.443 362.464 156.458 363.609 157.969C364.755 159.427 365.693 161.51 366.422 164.219C367.203 166.875 367.724 170.339 367.984 174.609C370.901 170.964 373.479 167.812 375.719 165.156C378.01 162.5 380.094 160.312 381.969 158.594C383.896 156.875 385.667 155.599 387.281 154.766C388.896 153.932 390.484 153.516 392.047 153.516C393.661 153.516 394.938 153.776 395.875 154.297C396.812 154.818 397.542 155.443 398.062 156.172C398.583 156.849 398.922 157.552 399.078 158.281C399.234 159.01 399.312 159.609 399.312 160.078C399.312 161.432 398.948 162.63 398.219 163.672C397.49 164.714 396.448 165.234 395.094 165.234C393.792 165.234 392.75 164.792 391.969 163.906C391.188 162.969 390.797 161.901 390.797 160.703C390.797 160.443 390.823 160 390.875 159.375C390.979 158.75 391.161 158.125 391.422 157.5C390.276 157.5 388.948 158.047 387.438 159.141C385.979 160.234 384.286 161.797 382.359 163.828C380.484 165.859 378.375 168.333 376.031 171.25C373.688 174.115 371.083 177.344 368.219 180.938C368.323 185.99 368.427 190.365 368.531 194.062C368.688 197.76 368.922 200.833 369.234 203.281C369.599 205.677 370.12 207.474 370.797 208.672C371.526 209.87 372.516 210.469 373.766 210.469C375.328 210.469 376.969 209.948 378.688 208.906C380.458 207.865 382.229 206.51 384 204.844C385.771 203.125 387.516 201.198 389.234 199.062C391.005 196.927 392.672 194.766 394.234 192.578C395.797 190.391 397.229 188.281 398.531 186.25C399.885 184.167 401.031 182.37 401.969 180.859L404.781 183.047C404.417 183.672 403.688 184.896 402.594 186.719C401.5 188.542 400.146 190.651 398.531 193.047C396.917 195.391 395.068 197.865 392.984 200.469C390.901 203.073 388.714 205.469 386.422 207.656C384.13 209.792 381.76 211.562 379.312 212.969C376.865 214.375 374.469 215.078 372.125 215.078C370.042 215.078 368.271 214.714 366.812 213.984C365.354 213.307 364.13 212.083 363.141 210.312C362.151 208.542 361.396 206.146 360.875 203.125C360.354 200.104 359.99 196.276 359.781 191.641C356.865 195.234 354.156 198.49 351.656 201.406C349.156 204.271 346.76 206.719 344.469 208.75C342.177 210.729 339.964 212.24 337.828 213.281C335.745 214.375 333.688 214.922 331.656 214.922C328.844 214.922 326.656 214.141 325.094 212.578C323.531 211.068 322.75 209.141 322.75 206.797C322.75 205.703 323.115 204.661 323.844 203.672C324.521 202.63 325.51 202.109 326.812 202.109C327.958 202.109 328.974 202.604 329.859 203.594C330.797 204.583 331.266 205.755 331.266 207.109C331.266 207.682 331.188 208.333 331.031 209.062C330.875 209.792 330.615 210.443 330.25 211.016C330.406 211.12 330.615 211.172 330.875 211.172C331.135 211.224 331.396 211.25 331.656 211.25C333.427 211.25 335.354 210.573 337.438 209.219C339.573 207.865 341.812 206.016 344.156 203.672C346.5 201.328 348.948 198.594 351.5 195.469C354.104 192.344 356.786 188.984 359.547 185.391V185.078ZM438.375 192.969C435.979 195.781 433.609 198.385 431.266 200.781C428.922 203.125 426.578 205.156 424.234 206.875C421.943 208.542 419.651 209.844 417.359 210.781C415.068 211.771 412.75 212.266 410.406 212.266C408.427 212.266 406.63 211.901 405.016 211.172C403.453 210.495 402.099 209.531 400.953 208.281C399.755 206.979 398.844 205.417 398.219 203.594C397.594 201.719 397.281 199.635 397.281 197.344C397.281 193.75 398.089 190.052 399.703 186.25C401.266 182.448 403.245 178.75 405.641 175.156C408.089 171.562 410.771 168.151 413.688 164.922C416.656 161.693 419.469 158.828 422.125 156.328L425.484 158.672C423.609 161.432 421.5 164.557 419.156 168.047C416.865 171.536 414.677 175.156 412.594 178.906C410.562 182.604 408.844 186.328 407.438 190.078C406.031 193.776 405.328 197.214 405.328 200.391C405.328 202.526 405.719 204.349 406.5 205.859C407.333 207.37 408.896 208.125 411.188 208.125C413.688 208.125 416.422 207.135 419.391 205.156C422.411 203.177 425.484 200.599 428.609 197.422C431.786 194.245 434.938 190.677 438.062 186.719C441.24 182.708 444.234 178.672 447.047 174.609C449.859 170.547 452.411 166.667 454.703 162.969C457.047 159.271 458.948 156.12 460.406 153.516L466.109 156.328C463.089 162.266 460.172 167.812 457.359 172.969C454.599 178.073 452.125 182.682 449.938 186.797C447.802 190.859 446.083 194.401 444.781 197.422C443.531 200.443 442.906 202.839 442.906 204.609C442.906 205.339 443.062 205.938 443.375 206.406C443.688 206.875 444.182 207.109 444.859 207.109C446.786 207.161 448.896 206.328 451.188 204.609C453.531 202.891 455.875 200.729 458.219 198.125C460.615 195.521 462.932 192.682 465.172 189.609C467.464 186.484 469.521 183.568 471.344 180.859L474.156 183.047C473.844 183.568 473.193 184.635 472.203 186.25C471.214 187.865 469.99 189.714 468.531 191.797C467.073 193.88 465.406 196.068 463.531 198.359C461.656 200.651 459.677 202.76 457.594 204.688C455.51 206.562 453.349 208.125 451.109 209.375C448.87 210.573 446.656 211.172 444.469 211.172C443.115 211.172 441.891 210.938 440.797 210.469C439.755 210 438.87 209.375 438.141 208.594C437.411 207.812 436.839 206.901 436.422 205.859C436.005 204.818 435.797 203.724 435.797 202.578C435.797 201.224 436.005 199.74 436.422 198.125C436.891 196.51 437.542 194.792 438.375 192.969ZM520.641 183.047C519.859 184.193 518.922 185.755 517.828 187.734C516.786 189.661 515.562 191.771 514.156 194.062C512.75 196.302 511.188 198.594 509.469 200.938C507.802 203.281 505.953 205.391 503.922 207.266C501.943 209.141 499.781 210.677 497.438 211.875C495.094 213.073 492.594 213.672 489.938 213.672C488.479 213.672 487.099 213.438 485.797 212.969C484.495 212.552 483.349 211.875 482.359 210.938C481.37 210 480.589 208.854 480.016 207.5C479.443 206.094 479.156 204.453 479.156 202.578C479.156 200.026 479.651 197.37 480.641 194.609C481.682 191.797 482.88 189.089 484.234 186.484C485.589 183.88 486.943 181.51 488.297 179.375C489.651 177.188 490.641 175.443 491.266 174.141C491.891 172.839 492.203 171.719 492.203 170.781C492.203 170.104 491.969 169.505 491.5 168.984C491.083 168.464 490.536 167.969 489.859 167.5C489.234 166.979 488.557 166.458 487.828 165.938C487.151 165.365 486.578 164.688 486.109 163.906C484.807 165.99 483.479 168.099 482.125 170.234C480.927 172.057 479.625 174.115 478.219 176.406C476.812 178.646 475.458 180.859 474.156 183.047L471.344 180.859L488.062 154.688L490.328 155.859C490.224 156.172 490.042 156.667 489.781 157.344C489.573 158.021 489.469 158.75 489.469 159.531C489.469 160.104 489.547 160.677 489.703 161.25C489.911 161.771 490.302 162.266 490.875 162.734C492.958 164.609 494.599 166.068 495.797 167.109C496.995 168.099 497.854 168.906 498.375 169.531C498.948 170.104 499.286 170.599 499.391 171.016C499.547 171.38 499.625 171.875 499.625 172.5C499.625 173.125 499.521 173.88 499.312 174.766C499.104 175.651 498.74 176.719 498.219 177.969C497.75 179.219 497.073 180.703 496.188 182.422C495.354 184.089 494.286 186.042 492.984 188.281C492.203 189.635 491.422 191.016 490.641 192.422C489.911 193.776 489.234 195.156 488.609 196.562C488.036 197.969 487.568 199.375 487.203 200.781C486.839 202.188 486.656 203.542 486.656 204.844C486.656 205.833 486.786 206.641 487.047 207.266C487.359 207.839 487.75 208.281 488.219 208.594C488.688 208.906 489.182 209.115 489.703 209.219C490.276 209.323 490.823 209.375 491.344 209.375C493.062 209.375 494.755 208.88 496.422 207.891C498.141 206.849 499.807 205.521 501.422 203.906C503.089 202.292 504.677 200.469 506.188 198.438C507.75 196.354 509.234 194.245 510.641 192.109C512.047 189.974 513.349 187.943 514.547 186.016C515.745 184.036 516.812 182.318 517.75 180.859L520.641 183.047ZM523.688 192.188C523.583 192.812 523.505 193.438 523.453 194.062C523.401 194.688 523.375 195.312 523.375 195.938C523.375 197.812 523.635 199.609 524.156 201.328C524.729 202.995 525.536 204.479 526.578 205.781C527.672 207.031 529 208.021 530.562 208.75C532.177 209.479 534 209.844 536.031 209.844C542.854 209.844 549.443 207.526 555.797 202.891C562.151 198.255 568.479 190.911 574.781 180.859L577.438 183.203C574 188.932 570.51 193.776 566.969 197.734C563.427 201.641 559.885 204.818 556.344 207.266C552.854 209.714 549.417 211.484 546.031 212.578C542.646 213.672 539.417 214.219 536.344 214.219C534.104 214.219 531.734 213.906 529.234 213.281C526.734 212.656 524.417 211.615 522.281 210.156C520.198 208.698 518.479 206.745 517.125 204.297C515.719 201.849 515.016 198.802 515.016 195.156C515.016 191.25 515.693 187.5 517.047 183.906C518.349 180.26 520.068 176.875 522.203 173.75C524.339 170.625 526.786 167.786 529.547 165.234C532.307 162.63 535.094 160.417 537.906 158.594C540.771 156.771 543.557 155.365 546.266 154.375C548.974 153.333 551.37 152.812 553.453 152.812C554.807 152.812 556.188 153.021 557.594 153.438C559 153.854 560.25 154.505 561.344 155.391C562.49 156.276 563.401 157.448 564.078 158.906C564.807 160.365 565.172 162.109 565.172 164.141C565.172 166.901 564.521 169.505 563.219 171.953C561.969 174.349 560.276 176.589 558.141 178.672C556.005 180.703 553.531 182.552 550.719 184.219C547.906 185.833 544.964 187.214 541.891 188.359C538.818 189.505 535.719 190.417 532.594 191.094C529.469 191.771 526.5 192.135 523.688 192.188ZM524.312 188.828C527.802 188.464 531.083 187.734 534.156 186.641C537.229 185.547 540.042 184.219 542.594 182.656C545.146 181.042 547.411 179.297 549.391 177.422C551.422 175.547 553.115 173.646 554.469 171.719C555.823 169.792 556.865 167.943 557.594 166.172C558.323 164.401 558.688 162.812 558.688 161.406C558.688 160 558.297 158.88 557.516 158.047C556.786 157.214 555.901 156.797 554.859 156.797C552.568 156.797 549.99 157.63 547.125 159.297C544.26 160.911 541.396 163.177 538.531 166.094C535.667 168.958 532.958 172.344 530.406 176.25C527.906 180.156 525.875 184.349 524.312 188.828Z" fill="#152545"/>
<rect x="44" y="162" width="84" height="8" rx="4" fill="#152545"/>
</svg>
