<svg width="702" height="413" viewBox="0 0 702 413" fill="none" xmlns="http://www.w3.org/2000/svg">
<rect x="30" width="672" height="413" fill="#87CEEB"/>
<mask id="mask0" mask-type="alpha" maskUnits="userSpaceOnUse" x="30" y="0" width="672" height="413">
<rect x="30" width="672" height="413" fill="white"/>
</mask>
<g mask="url(#mask0)">
<ellipse cx="244.5" cy="45" rx="23.5" ry="23" fill="white"/>
<ellipse cx="236.5" cy="88" rx="23.5" ry="23" fill="white"/>
<ellipse cx="249.5" cy="74" rx="23.5" ry="23" fill="white"/>
<ellipse cx="206.5" cy="72" rx="23.5" ry="23" fill="white"/>
<ellipse cx="216.5" cy="56" rx="23.5" ry="23" fill="white"/>
<ellipse cx="216.5" cy="19" rx="23.5" ry="23" fill="white"/>
<ellipse cx="189.5" cy="42" rx="23.5" ry="23" fill="white"/>
<ellipse cx="165.5" cy="51" rx="23.5" ry="23" fill="white"/>
<ellipse cx="183.5" cy="88" rx="23.5" ry="23" fill="white"/>
<ellipse cx="207.5" cy="111" rx="23.5" ry="23" fill="white"/>
<ellipse cx="243.5" cy="118" rx="23.5" ry="23" fill="white"/>
<ellipse cx="273.5" cy="111" rx="23.5" ry="23" fill="white"/>
<ellipse cx="291.5" cy="79" rx="23.5" ry="23" fill="white"/>
<ellipse cx="267.5" cy="51" rx="23.5" ry="23" fill="white"/>
<ellipse cx="156.265" cy="324.17" rx="23.5" ry="36.7501" transform="rotate(59.0555 156.265 324.17)" fill="white"/>
<ellipse cx="93.224" cy="352.638" rx="23.5" ry="36.7501" transform="rotate(59.0555 93.224 352.638)" fill="white"/>
<ellipse cx="119.094" cy="352.285" rx="23.5" ry="36.7501" transform="rotate(59.0555 119.094 352.285)" fill="white"/>
<ellipse cx="99.7242" cy="313.762" rx="23.5" ry="36.7501" transform="rotate(59.0555 99.7242 313.762)" fill="white"/>
<ellipse cx="126.793" cy="309.193" rx="23.5" ry="36.7501" transform="rotate(59.0555 126.793 309.193)" fill="white"/>
<ellipse cx="177.498" cy="278.793" rx="23.5" ry="36.7501" transform="rotate(59.0555 177.498 278.793)" fill="white"/>
<ellipse cx="132.095" cy="274.533" rx="23.5" ry="36.7501" transform="rotate(59.0555 132.095 274.533)" fill="white"/>
<ellipse cx="107.42" cy="261.344" rx="23.5" ry="36.7501" transform="rotate(59.0555 107.42 261.344)" fill="white"/>
<ellipse cx="65.971" cy="307.182" rx="23.5" ry="36.7501" transform="rotate(59.0555 65.971 307.182)" fill="white"/>
<ellipse cx="46.7927" cy="346.663" rx="23.5" ry="36.7501" transform="rotate(59.0555 46.7927 346.663)" fill="white"/>
<ellipse cx="55.7114" cy="383.29" rx="23.5" ry="36.7501" transform="rotate(59.0555 55.7114 383.29)" fill="white"/>
<ellipse cx="80.7304" cy="403.269" rx="23.5" ry="36.7501" transform="rotate(59.0555 80.7304 403.269)" fill="white"/>
<ellipse cx="133.839" cy="392.415" rx="23.5" ry="36.7501" transform="rotate(59.0555 133.839 392.415)" fill="white"/>
<ellipse cx="159.869" cy="348.826" rx="23.5" ry="36.7501" transform="rotate(59.0555 159.869 348.826)" fill="white"/>
<ellipse cx="616.927" cy="45.9673" rx="14.8069" ry="14.4918" transform="rotate(-71.3264 616.927 45.9673)" fill="white"/>
<ellipse cx="640.98" cy="59.4173" rx="14.8069" ry="14.4918" transform="rotate(-71.3264 640.98 59.4173)" fill="white"/>
<ellipse cx="635.246" cy="48.8331" rx="14.8069" ry="14.4918" transform="rotate(-71.3264 635.246 48.8331)" fill="white"/>
<ellipse cx="625.377" cy="74.0968" rx="14.8069" ry="14.4918" transform="rotate(-71.3264 625.377 74.0968)" fill="white"/>
<ellipse cx="617.844" cy="64.8999" rx="14.8069" ry="14.4918" transform="rotate(-71.3264 617.844 64.8999)" fill="white"/>
<ellipse cx="595.758" cy="57.4356" rx="14.8069" ry="14.4918" transform="rotate(-71.3264 595.758 57.4356)" fill="white"/>
<ellipse cx="604.04" cy="78.1922" rx="14.8069" ry="14.4918" transform="rotate(-71.3264 604.04 78.1922)" fill="white"/>
<ellipse cx="604.571" cy="94.3337" rx="14.8069" ry="14.4918" transform="rotate(-71.3264 604.571 94.3337)" fill="white"/>
<ellipse cx="630.288" cy="91.0536" rx="14.8069" ry="14.4918" transform="rotate(-71.3264 630.288 91.0536)" fill="white"/>
<ellipse cx="648.859" cy="81.3676" rx="14.8069" ry="14.4918" transform="rotate(-71.3264 648.859 81.3676)" fill="white"/>
<ellipse cx="660.299" cy="61.291" rx="14.8069" ry="14.4918" transform="rotate(-71.3264 660.299 61.291)" fill="white"/>
<ellipse cx="662.173" cy="41.9715" rx="14.8069" ry="14.4918" transform="rotate(-71.3264 662.173 41.9715)" fill="white"/>
<ellipse cx="646.703" cy="24.7716" rx="14.8069" ry="14.4918" transform="rotate(-71.3264 646.703 24.7716)" fill="white"/>
<ellipse cx="625.148" cy="33.4488" rx="14.8069" ry="14.4918" transform="rotate(-71.3264 625.148 33.4488)" fill="white"/>
<ellipse cx="635.191" cy="52.1402" rx="14.8069" ry="23.5414" transform="rotate(-71.3264 635.191 52.1402)" fill="white"/>
<ellipse cx="675.273" cy="71.0071" rx="14.8069" ry="23.5414" transform="rotate(-71.3264 675.273 71.0071)" fill="white"/>
<ellipse cx="664.32" cy="58.6593" rx="14.8069" ry="23.5414" transform="rotate(-71.3264 664.32 58.6593)" fill="white"/>
<ellipse cx="653.706" cy="83.671" rx="14.8069" ry="23.5414" transform="rotate(-71.3264 653.706 83.671)" fill="white"/>
<ellipse cx="640.209" cy="72.4585" rx="14.8069" ry="23.5414" transform="rotate(-71.3264 640.209 72.4585)" fill="white"/>
<ellipse cx="604.331" cy="60.3331" rx="14.8069" ry="23.5414" transform="rotate(-71.3264 604.331 60.3331)" fill="white"/>
<ellipse cx="621.187" cy="83.9871" rx="14.8069" ry="23.5414" transform="rotate(-71.3264 621.187 83.9871)" fill="white"/>
<ellipse cx="625.072" cy="101.262" rx="14.8069" ry="23.5414" transform="rotate(-71.3264 625.072 101.262)" fill="white"/>
<ellipse cx="664.581" cy="102.643" rx="14.8069" ry="23.5414" transform="rotate(-71.3264 664.581 102.643)" fill="white"/>
<ellipse cx="691.724" cy="95.8549" rx="14.8069" ry="23.5414" transform="rotate(-71.3264 691.724 95.8549)" fill="white"/>
<ellipse cx="705.774" cy="76.6602" rx="14.8069" ry="23.5414" transform="rotate(-71.3264 705.774 76.6602)" fill="white"/>
<ellipse cx="705.039" cy="56.4588" rx="14.8069" ry="23.5414" transform="rotate(-71.3264 705.039 56.4588)" fill="white"/>
<ellipse cx="677.641" cy="35.2276" rx="14.8069" ry="23.5414" transform="rotate(-71.3264 677.641 35.2276)" fill="white"/>
<ellipse cx="645.649" cy="40.3775" rx="14.8069" ry="23.5414" transform="rotate(-71.3264 645.649 40.3775)" fill="white"/>
<ellipse cx="477.6" cy="325.077" rx="45.6016" ry="44.6314" transform="rotate(-144.865 477.6 325.077)" fill="white"/>
<ellipse cx="538.316" cy="265.773" rx="45.6016" ry="44.6314" transform="rotate(-144.865 538.316 265.773)" fill="white"/>
<ellipse cx="502.052" cy="273.473" rx="45.6016" ry="44.6314" transform="rotate(-144.865 502.052 273.473)" fill="white"/>
<ellipse cx="568.056" cy="324.667" rx="45.6016" ry="44.6314" transform="rotate(-144.865 568.056 324.667)" fill="white"/>
<ellipse cx="534.319" cy="338.89" rx="45.6016" ry="44.6314" transform="rotate(-144.865 534.319 338.89)" fill="white"/>
<ellipse cx="492.999" cy="397.607" rx="45.6016" ry="44.6314" transform="rotate(-144.865 492.999 397.607)" fill="white"/>
<ellipse cx="561.531" cy="391.26" rx="45.6016" ry="44.6314" transform="rotate(-144.865 561.531 391.26)" fill="white"/>
<ellipse cx="609.669" cy="403.78" rx="45.6016" ry="44.6314" transform="rotate(-144.865 609.669 403.78)" fill="white"/>
<ellipse cx="622.424" cy="324.962" rx="45.6016" ry="44.6314" transform="rotate(-144.865 622.424 324.962)" fill="white"/>
<ellipse cx="610.023" cy="261.66" rx="45.6016" ry="44.6314" transform="rotate(-144.865 610.023 261.66)" fill="white"/>
<ellipse cx="560.711" cy="210.348" rx="45.6016" ry="44.6314" transform="rotate(-144.865 560.711 210.348)" fill="white"/>
<ellipse cx="505.285" cy="187.954" rx="45.6016" ry="44.6314" transform="rotate(-144.865 505.285 187.954)" fill="white"/>
<ellipse cx="440.984" cy="218.634" rx="45.6016" ry="44.6314" transform="rotate(-144.865 440.984 218.634)" fill="white"/>
<ellipse cx="447.801" cy="289.87" rx="45.6016" ry="44.6314" transform="rotate(-144.865 447.801 289.87)" fill="white"/>
</g>
<g filter="url(#filter0_dd)">
<path d="M65.3849 80.5346C65.3849 71.297 75.3849 65.5235 83.3849 70.1423L160.635 114.743C168.635 119.361 168.635 130.908 160.635 135.527L83.3849 180.128C75.3849 184.746 65.3849 178.973 65.3849 169.735L65.3849 80.5346Z" fill="#152545"/>
</g>
<g filter="url(#filter1_dd)">
<path d="M65.3849 245.535C65.3849 236.297 75.3849 230.524 83.3849 235.142L160.635 279.743C168.635 284.361 168.635 295.908 160.635 300.527L83.3849 345.128C75.3849 349.746 65.3849 343.973 65.3849 334.735L65.3849 245.535Z" fill="#152545"/>
</g>
<g filter="url(#filter2_d)">
<path d="M377.426 307.172L494.069 326.939C514.655 330.427 520.808 357.024 503.847 369.199L489.104 379.783C485.109 382.65 480.316 384.192 475.4 384.192H271.6C266.684 384.192 261.891 382.65 257.896 379.783L243.153 369.199C226.192 357.024 232.345 330.427 252.931 326.939L369.574 307.172C372.173 306.732 374.827 306.732 377.426 307.172Z" fill="#152545" stroke="#505457"/>
<mask id="mask1" mask-type="alpha" maskUnits="userSpaceOnUse" x="232" y="306" width="283" height="79">
<path d="M369.497 306.677C372.147 306.229 374.853 306.229 377.503 306.677L494.372 326.447C515.409 330.006 521.691 357.192 504.348 369.619L489.582 380.201C485.506 383.121 480.617 384.692 475.603 384.692H271.397C266.383 384.692 261.494 383.121 257.418 380.201L242.652 369.619C225.309 357.192 231.591 330.006 252.628 326.447L369.497 306.677Z" fill="black"/>
</mask>
<g mask="url(#mask1)">
<rect x="477.788" y="308.231" width="39.0385" height="55.7692" rx="11" fill="#C2F0FF"/>
</g>
<ellipse cx="373.5" cy="206.5" rx="302.5" ry="138.5" fill="#A9AEB3"/>
<path fill-rule="evenodd" clip-rule="evenodd" d="M576.209 287.952C573.976 289.013 571.699 290.058 569.379 291.084C519.355 313.228 450.036 327 373.31 327C296.585 327 227.266 313.228 177.242 291.084C174.922 290.058 172.645 289.013 170.412 287.952C169.755 287.77 169.101 287.522 168.457 287.205L135 270.756C183.994 306.284 272.395 330 373.31 330C474.225 330 562.627 306.284 611.621 270.756L578.164 287.205C577.52 287.522 576.866 287.77 576.209 287.952ZM611.621 142.244C562.627 106.716 474.225 83 373.31 83C272.395 83 183.994 106.716 135 142.244L168.457 125.795C169.101 125.478 169.755 125.23 170.412 125.048C172.645 123.987 174.922 122.942 177.242 121.916C227.266 99.7722 296.585 86 373.31 86C450.036 86 519.355 99.7722 569.379 121.916C571.699 122.942 573.976 123.987 576.209 125.048C576.866 125.23 577.52 125.478 578.164 125.795L611.621 142.244Z" fill="#C4C4C4"/>
<path fill-rule="evenodd" clip-rule="evenodd" d="M567.963 269.827C566.705 270.289 565.433 270.746 564.148 271.199C515.499 288.341 448.095 299 373.5 299C298.905 299 231.501 288.341 182.852 271.199C181.567 270.746 180.295 270.289 179.037 269.827C177.673 269.843 176.272 269.601 174.892 269.061L142 256.188C189.594 283.661 275.469 302 373.5 302C471.531 302 557.406 283.661 605 256.188L572.108 269.061C570.728 269.601 569.327 269.843 567.963 269.827ZM605 156.812C557.406 129.339 471.531 111 373.5 111C275.469 111 189.594 129.339 142 156.812L174.892 143.939C176.272 143.399 177.673 143.157 179.037 143.173C180.295 142.711 181.567 142.254 182.852 141.801C231.501 124.659 298.905 114 373.5 114C448.095 114 515.499 124.659 564.148 141.801C565.433 142.254 566.705 142.711 567.963 143.173C569.327 143.157 570.728 143.399 572.108 143.939L605 156.812Z" fill="#C4C4C4"/>
<rect x="278" y="350" width="14" height="14" rx="5" fill="#C2F0FF"/>
<rect x="257" y="350" width="14" height="14" rx="5" fill="#C2F0FF"/>
<rect x="299" y="350" width="14" height="14" rx="5" fill="#C2F0FF"/>
<rect x="320" y="350" width="14" height="14" rx="5" fill="#C2F0FF"/>
<rect x="341" y="350" width="14" height="14" rx="5" fill="#C2F0FF"/>
<rect x="362" y="350" width="14" height="14" rx="5" fill="#C2F0FF"/>
<rect x="383" y="350" width="14" height="14" rx="5" fill="#C2F0FF"/>
<rect x="404" y="350" width="14" height="14" rx="5" fill="#C2F0FF"/>
<rect x="425" y="350" width="14" height="14" rx="5" fill="#C2F0FF"/>
<rect x="451" y="346" width="14" height="36" rx="5" fill="#C4C4C4"/>
<rect x="454" y="351" width="8" height="8" rx="4" fill="#C2F0FF"/>
<circle cx="462.5" cy="362.5" r="1.5" fill="black"/>
</g>
<g filter="url(#filter3_i)">
<path d="M238.734 261.078C235.349 261.078 231.911 260.766 228.422 260.141C224.984 259.568 221.495 258.786 217.953 257.797C214.411 256.859 210.87 255.818 207.328 254.672C203.786 253.526 200.297 252.406 196.859 251.312C192.745 253.812 188.448 255.766 183.969 257.172C179.49 258.63 174.776 259.359 169.828 259.359C165.609 259.359 162.38 258.604 160.141 257.094C157.901 255.583 156.781 253.578 156.781 251.078C156.781 247.797 158.604 245.271 162.25 243.5C165.896 241.729 171.417 240.844 178.812 240.844C182.042 240.844 185.297 241.078 188.578 241.547C191.859 242.016 195.193 242.615 198.578 243.344C201.859 240.479 204.984 237.25 207.953 233.656C210.922 230.062 213.812 226.208 216.625 222.094C214.49 222.354 212.328 222.562 210.141 222.719C207.953 222.823 205.74 222.875 203.5 222.875C195.323 222.875 188.031 221.911 181.625 219.984C175.219 218.005 169.802 215.323 165.375 211.938C160.948 208.5 157.562 204.49 155.219 199.906C152.927 195.271 151.781 190.297 151.781 184.984C151.781 178.734 152.979 173.188 155.375 168.344C157.771 163.5 161.052 159.438 165.219 156.156C169.438 152.823 174.385 150.297 180.062 148.578C185.74 146.807 191.833 145.922 198.344 145.922C202.458 145.922 206.208 146.234 209.594 146.859C212.979 147.484 215.896 148.161 218.344 148.891C220.844 149.62 222.797 150.323 224.203 151C225.609 151.677 226.391 152.042 226.547 152.094L224.516 155.609C224.464 155.609 223.812 155.323 222.562 154.75C221.312 154.125 219.594 153.474 217.406 152.797C215.219 152.12 212.615 151.495 209.594 150.922C206.573 150.349 203.318 150.062 199.828 150.062C193.682 150.062 188.161 150.974 183.266 152.797C178.422 154.568 174.307 157.016 170.922 160.141C167.589 163.266 165.01 166.938 163.188 171.156C161.417 175.323 160.531 179.776 160.531 184.516C160.531 189.828 161.755 194.594 164.203 198.812C166.651 202.979 169.932 206.521 174.047 209.438C178.161 212.302 182.927 214.49 188.344 216C193.812 217.51 199.542 218.266 205.531 218.266C207.979 218.266 210.375 218.188 212.719 218.031C215.115 217.875 217.484 217.615 219.828 217.25C223.526 211.469 227.094 205.479 230.531 199.281C234.021 193.083 237.484 187.016 240.922 181.078C244.359 175.141 247.823 169.516 251.312 164.203C254.802 158.839 258.422 154.151 262.172 150.141C265.974 146.13 269.958 142.953 274.125 140.609C278.292 138.214 282.771 137.016 287.562 137.016C289.438 137.016 291.182 137.328 292.797 137.953C294.411 138.526 295.818 139.438 297.016 140.688C298.214 141.885 299.151 143.422 299.828 145.297C300.505 147.172 300.844 149.359 300.844 151.859C300.844 155.922 300.062 160.219 298.5 164.75C296.938 169.229 294.672 173.734 291.703 178.266C288.734 182.745 285.115 187.172 280.844 191.547C276.573 195.87 271.729 199.88 266.312 203.578C260.896 207.276 254.958 210.583 248.5 213.5C242.042 216.365 235.167 218.604 227.875 220.219C224.438 224.958 220.896 229.438 217.25 233.656C213.604 237.823 209.75 241.599 205.688 244.984C209.646 246.026 213.526 247.146 217.328 248.344C221.13 249.49 224.724 250.531 228.109 251.469C231.547 252.458 234.724 253.266 237.641 253.891C240.557 254.568 243.135 254.906 245.375 254.906C248.708 254.906 251.911 254.333 254.984 253.188C258.109 252.042 261.208 250.01 264.281 247.094L267.484 249.594C267.432 249.646 267.146 249.984 266.625 250.609C266.104 251.182 265.323 251.885 264.281 252.719C263.24 253.604 261.938 254.516 260.375 255.453C258.812 256.443 256.964 257.354 254.828 258.188C252.745 259.021 250.349 259.698 247.641 260.219C244.984 260.792 242.016 261.078 238.734 261.078ZM287.875 141.312C284.958 141.312 282.068 142.354 279.203 144.438C276.339 146.521 273.448 149.359 270.531 152.953C267.615 156.495 264.646 160.688 261.625 165.531C258.656 170.323 255.583 175.453 252.406 180.922C249.229 186.339 245.922 191.938 242.484 197.719C239.047 203.5 235.453 209.177 231.703 214.75C237.953 213.031 243.891 210.792 249.516 208.031C255.193 205.271 260.427 202.172 265.219 198.734C270.062 195.297 274.411 191.625 278.266 187.719C282.172 183.76 285.479 179.724 288.188 175.609C290.948 171.495 293.057 167.432 294.516 163.422C295.974 159.359 296.703 155.479 296.703 151.781C296.703 149.854 296.469 148.24 296 146.938C295.531 145.583 294.88 144.49 294.047 143.656C293.266 142.823 292.328 142.224 291.234 141.859C290.193 141.495 289.073 141.312 287.875 141.312ZM169.359 255.297C173.214 255.297 176.859 254.75 180.297 253.656C183.734 252.615 187.068 251.156 190.297 249.281C186.859 248.292 183.526 247.484 180.297 246.859C177.12 246.234 174.047 245.922 171.078 245.922C167.536 245.922 164.932 246.443 163.266 247.484C161.651 248.526 160.844 249.724 160.844 251.078C160.844 251.495 160.948 251.938 161.156 252.406C161.417 252.927 161.859 253.396 162.484 253.812C163.109 254.229 163.969 254.568 165.062 254.828C166.156 255.141 167.589 255.297 169.359 255.297ZM315.375 233.969C312.979 236.781 310.609 239.385 308.266 241.781C305.922 244.125 303.578 246.156 301.234 247.875C298.943 249.542 296.651 250.844 294.359 251.781C292.068 252.771 289.75 253.266 287.406 253.266C285.427 253.266 283.63 252.901 282.016 252.172C280.453 251.495 279.099 250.531 277.953 249.281C276.755 247.979 275.844 246.417 275.219 244.594C274.594 242.719 274.281 240.635 274.281 238.344C274.281 234.75 275.089 231.052 276.703 227.25C278.266 223.448 280.245 219.75 282.641 216.156C285.089 212.562 287.771 209.151 290.688 205.922C293.656 202.693 296.469 199.828 299.125 197.328L302.484 199.672C300.609 202.432 298.5 205.557 296.156 209.047C293.865 212.536 291.677 216.156 289.594 219.906C287.562 223.604 285.844 227.328 284.438 231.078C283.031 234.776 282.328 238.214 282.328 241.391C282.328 243.526 282.719 245.349 283.5 246.859C284.333 248.37 285.896 249.125 288.188 249.125C290.688 249.125 293.422 248.135 296.391 246.156C299.411 244.177 302.484 241.599 305.609 238.422C308.786 235.245 311.938 231.677 315.062 227.719C318.24 223.708 321.234 219.672 324.047 215.609C326.859 211.547 329.411 207.667 331.703 203.969C334.047 200.271 335.948 197.12 337.406 194.516L343.109 197.328C340.089 203.266 337.172 208.812 334.359 213.969C331.599 219.073 329.125 223.682 326.938 227.797C324.802 231.859 323.083 235.401 321.781 238.422C320.531 241.443 319.906 243.839 319.906 245.609C319.906 246.339 320.062 246.938 320.375 247.406C320.688 247.875 321.182 248.109 321.859 248.109C323.786 248.161 325.896 247.328 328.188 245.609C330.531 243.891 332.875 241.729 335.219 239.125C337.615 236.521 339.932 233.682 342.172 230.609C344.464 227.484 346.521 224.568 348.344 221.859L351.156 224.047C350.844 224.568 350.193 225.635 349.203 227.25C348.214 228.865 346.99 230.714 345.531 232.797C344.073 234.88 342.406 237.068 340.531 239.359C338.656 241.651 336.677 243.76 334.594 245.688C332.51 247.562 330.349 249.125 328.109 250.375C325.87 251.573 323.656 252.172 321.469 252.172C320.115 252.172 318.891 251.938 317.797 251.469C316.755 251 315.87 250.375 315.141 249.594C314.411 248.812 313.839 247.901 313.422 246.859C313.005 245.818 312.797 244.724 312.797 243.578C312.797 242.224 313.005 240.74 313.422 239.125C313.891 237.51 314.542 235.792 315.375 233.969ZM381.547 226.078C381.443 222.328 381.417 218.839 381.469 215.609C381.521 212.328 381.417 209.49 381.156 207.094C380.948 204.646 380.479 202.719 379.75 201.312C379.021 199.906 377.849 199.203 376.234 199.203C374.828 199.203 373.344 199.646 371.781 200.531C370.219 201.365 368.656 202.484 367.094 203.891C365.531 205.245 363.969 206.807 362.406 208.578C360.844 210.349 359.359 212.172 357.953 214.047C356.599 215.87 355.323 217.667 354.125 219.438C352.979 221.156 351.99 222.693 351.156 224.047L348.344 221.859C349.125 220.661 350.089 219.177 351.234 217.406C352.38 215.635 353.656 213.76 355.062 211.781C356.521 209.802 358.083 207.823 359.75 205.844C361.417 203.865 363.161 202.094 364.984 200.531C366.807 198.917 368.682 197.615 370.609 196.625C372.536 195.635 374.49 195.141 376.469 195.141C378.344 195.141 380.036 195.401 381.547 195.922C383.109 196.443 384.464 197.458 385.609 198.969C386.755 200.427 387.693 202.51 388.422 205.219C389.203 207.875 389.724 211.339 389.984 215.609C392.901 211.964 395.479 208.812 397.719 206.156C400.01 203.5 402.094 201.312 403.969 199.594C405.896 197.875 407.667 196.599 409.281 195.766C410.896 194.932 412.484 194.516 414.047 194.516C415.661 194.516 416.938 194.776 417.875 195.297C418.812 195.818 419.542 196.443 420.062 197.172C420.583 197.849 420.922 198.552 421.078 199.281C421.234 200.01 421.312 200.609 421.312 201.078C421.312 202.432 420.948 203.63 420.219 204.672C419.49 205.714 418.448 206.234 417.094 206.234C415.792 206.234 414.75 205.792 413.969 204.906C413.188 203.969 412.797 202.901 412.797 201.703C412.797 201.443 412.823 201 412.875 200.375C412.979 199.75 413.161 199.125 413.422 198.5C412.276 198.5 410.948 199.047 409.438 200.141C407.979 201.234 406.286 202.797 404.359 204.828C402.484 206.859 400.375 209.333 398.031 212.25C395.688 215.115 393.083 218.344 390.219 221.938C390.323 226.99 390.427 231.365 390.531 235.062C390.688 238.76 390.922 241.833 391.234 244.281C391.599 246.677 392.12 248.474 392.797 249.672C393.526 250.87 394.516 251.469 395.766 251.469C397.328 251.469 398.969 250.948 400.688 249.906C402.458 248.865 404.229 247.51 406 245.844C407.771 244.125 409.516 242.198 411.234 240.062C413.005 237.927 414.672 235.766 416.234 233.578C417.797 231.391 419.229 229.281 420.531 227.25C421.885 225.167 423.031 223.37 423.969 221.859L426.781 224.047C426.417 224.672 425.688 225.896 424.594 227.719C423.5 229.542 422.146 231.651 420.531 234.047C418.917 236.391 417.068 238.865 414.984 241.469C412.901 244.073 410.714 246.469 408.422 248.656C406.13 250.792 403.76 252.562 401.312 253.969C398.865 255.375 396.469 256.078 394.125 256.078C392.042 256.078 390.271 255.714 388.812 254.984C387.354 254.307 386.13 253.083 385.141 251.312C384.151 249.542 383.396 247.146 382.875 244.125C382.354 241.104 381.99 237.276 381.781 232.641C378.865 236.234 376.156 239.49 373.656 242.406C371.156 245.271 368.76 247.719 366.469 249.75C364.177 251.729 361.964 253.24 359.828 254.281C357.745 255.375 355.688 255.922 353.656 255.922C350.844 255.922 348.656 255.141 347.094 253.578C345.531 252.068 344.75 250.141 344.75 247.797C344.75 246.703 345.115 245.661 345.844 244.672C346.521 243.63 347.51 243.109 348.812 243.109C349.958 243.109 350.974 243.604 351.859 244.594C352.797 245.583 353.266 246.755 353.266 248.109C353.266 248.682 353.188 249.333 353.031 250.062C352.875 250.792 352.615 251.443 352.25 252.016C352.406 252.12 352.615 252.172 352.875 252.172C353.135 252.224 353.396 252.25 353.656 252.25C355.427 252.25 357.354 251.573 359.438 250.219C361.573 248.865 363.812 247.016 366.156 244.672C368.5 242.328 370.948 239.594 373.5 236.469C376.104 233.344 378.786 229.984 381.547 226.391V226.078ZM460.375 233.969C457.979 236.781 455.609 239.385 453.266 241.781C450.922 244.125 448.578 246.156 446.234 247.875C443.943 249.542 441.651 250.844 439.359 251.781C437.068 252.771 434.75 253.266 432.406 253.266C430.427 253.266 428.63 252.901 427.016 252.172C425.453 251.495 424.099 250.531 422.953 249.281C421.755 247.979 420.844 246.417 420.219 244.594C419.594 242.719 419.281 240.635 419.281 238.344C419.281 234.75 420.089 231.052 421.703 227.25C423.266 223.448 425.245 219.75 427.641 216.156C430.089 212.562 432.771 209.151 435.688 205.922C438.656 202.693 441.469 199.828 444.125 197.328L447.484 199.672C445.609 202.432 443.5 205.557 441.156 209.047C438.865 212.536 436.677 216.156 434.594 219.906C432.562 223.604 430.844 227.328 429.438 231.078C428.031 234.776 427.328 238.214 427.328 241.391C427.328 243.526 427.719 245.349 428.5 246.859C429.333 248.37 430.896 249.125 433.188 249.125C435.688 249.125 438.422 248.135 441.391 246.156C444.411 244.177 447.484 241.599 450.609 238.422C453.786 235.245 456.938 231.677 460.062 227.719C463.24 223.708 466.234 219.672 469.047 215.609C471.859 211.547 474.411 207.667 476.703 203.969C479.047 200.271 480.948 197.12 482.406 194.516L488.109 197.328C485.089 203.266 482.172 208.812 479.359 213.969C476.599 219.073 474.125 223.682 471.938 227.797C469.802 231.859 468.083 235.401 466.781 238.422C465.531 241.443 464.906 243.839 464.906 245.609C464.906 246.339 465.062 246.938 465.375 247.406C465.688 247.875 466.182 248.109 466.859 248.109C468.786 248.161 470.896 247.328 473.188 245.609C475.531 243.891 477.875 241.729 480.219 239.125C482.615 236.521 484.932 233.682 487.172 230.609C489.464 227.484 491.521 224.568 493.344 221.859L496.156 224.047C495.844 224.568 495.193 225.635 494.203 227.25C493.214 228.865 491.99 230.714 490.531 232.797C489.073 234.88 487.406 237.068 485.531 239.359C483.656 241.651 481.677 243.76 479.594 245.688C477.51 247.562 475.349 249.125 473.109 250.375C470.87 251.573 468.656 252.172 466.469 252.172C465.115 252.172 463.891 251.938 462.797 251.469C461.755 251 460.87 250.375 460.141 249.594C459.411 248.812 458.839 247.901 458.422 246.859C458.005 245.818 457.797 244.724 457.797 243.578C457.797 242.224 458.005 240.74 458.422 239.125C458.891 237.51 459.542 235.792 460.375 233.969ZM542.641 224.047C541.859 225.193 540.922 226.755 539.828 228.734C538.786 230.661 537.562 232.771 536.156 235.062C534.75 237.302 533.188 239.594 531.469 241.938C529.802 244.281 527.953 246.391 525.922 248.266C523.943 250.141 521.781 251.677 519.438 252.875C517.094 254.073 514.594 254.672 511.938 254.672C510.479 254.672 509.099 254.438 507.797 253.969C506.495 253.552 505.349 252.875 504.359 251.938C503.37 251 502.589 249.854 502.016 248.5C501.443 247.094 501.156 245.453 501.156 243.578C501.156 241.026 501.651 238.37 502.641 235.609C503.682 232.797 504.88 230.089 506.234 227.484C507.589 224.88 508.943 222.51 510.297 220.375C511.651 218.188 512.641 216.443 513.266 215.141C513.891 213.839 514.203 212.719 514.203 211.781C514.203 211.104 513.969 210.505 513.5 209.984C513.083 209.464 512.536 208.969 511.859 208.5C511.234 207.979 510.557 207.458 509.828 206.938C509.151 206.365 508.578 205.688 508.109 204.906C506.807 206.99 505.479 209.099 504.125 211.234C502.927 213.057 501.625 215.115 500.219 217.406C498.812 219.646 497.458 221.859 496.156 224.047L493.344 221.859L510.062 195.688L512.328 196.859C512.224 197.172 512.042 197.667 511.781 198.344C511.573 199.021 511.469 199.75 511.469 200.531C511.469 201.104 511.547 201.677 511.703 202.25C511.911 202.771 512.302 203.266 512.875 203.734C514.958 205.609 516.599 207.068 517.797 208.109C518.995 209.099 519.854 209.906 520.375 210.531C520.948 211.104 521.286 211.599 521.391 212.016C521.547 212.38 521.625 212.875 521.625 213.5C521.625 214.125 521.521 214.88 521.312 215.766C521.104 216.651 520.74 217.719 520.219 218.969C519.75 220.219 519.073 221.703 518.188 223.422C517.354 225.089 516.286 227.042 514.984 229.281C514.203 230.635 513.422 232.016 512.641 233.422C511.911 234.776 511.234 236.156 510.609 237.562C510.036 238.969 509.568 240.375 509.203 241.781C508.839 243.188 508.656 244.542 508.656 245.844C508.656 246.833 508.786 247.641 509.047 248.266C509.359 248.839 509.75 249.281 510.219 249.594C510.688 249.906 511.182 250.115 511.703 250.219C512.276 250.323 512.823 250.375 513.344 250.375C515.062 250.375 516.755 249.88 518.422 248.891C520.141 247.849 521.807 246.521 523.422 244.906C525.089 243.292 526.677 241.469 528.188 239.438C529.75 237.354 531.234 235.245 532.641 233.109C534.047 230.974 535.349 228.943 536.547 227.016C537.745 225.036 538.812 223.318 539.75 221.859L542.641 224.047ZM545.688 233.188C545.583 233.812 545.505 234.438 545.453 235.062C545.401 235.688 545.375 236.312 545.375 236.938C545.375 238.812 545.635 240.609 546.156 242.328C546.729 243.995 547.536 245.479 548.578 246.781C549.672 248.031 551 249.021 552.562 249.75C554.177 250.479 556 250.844 558.031 250.844C564.854 250.844 571.443 248.526 577.797 243.891C584.151 239.255 590.479 231.911 596.781 221.859L599.438 224.203C596 229.932 592.51 234.776 588.969 238.734C585.427 242.641 581.885 245.818 578.344 248.266C574.854 250.714 571.417 252.484 568.031 253.578C564.646 254.672 561.417 255.219 558.344 255.219C556.104 255.219 553.734 254.906 551.234 254.281C548.734 253.656 546.417 252.615 544.281 251.156C542.198 249.698 540.479 247.745 539.125 245.297C537.719 242.849 537.016 239.802 537.016 236.156C537.016 232.25 537.693 228.5 539.047 224.906C540.349 221.26 542.068 217.875 544.203 214.75C546.339 211.625 548.786 208.786 551.547 206.234C554.307 203.63 557.094 201.417 559.906 199.594C562.771 197.771 565.557 196.365 568.266 195.375C570.974 194.333 573.37 193.812 575.453 193.812C576.807 193.812 578.188 194.021 579.594 194.438C581 194.854 582.25 195.505 583.344 196.391C584.49 197.276 585.401 198.448 586.078 199.906C586.807 201.365 587.172 203.109 587.172 205.141C587.172 207.901 586.521 210.505 585.219 212.953C583.969 215.349 582.276 217.589 580.141 219.672C578.005 221.703 575.531 223.552 572.719 225.219C569.906 226.833 566.964 228.214 563.891 229.359C560.818 230.505 557.719 231.417 554.594 232.094C551.469 232.771 548.5 233.135 545.688 233.188ZM546.312 229.828C549.802 229.464 553.083 228.734 556.156 227.641C559.229 226.547 562.042 225.219 564.594 223.656C567.146 222.042 569.411 220.297 571.391 218.422C573.422 216.547 575.115 214.646 576.469 212.719C577.823 210.792 578.865 208.943 579.594 207.172C580.323 205.401 580.688 203.812 580.688 202.406C580.688 201 580.297 199.88 579.516 199.047C578.786 198.214 577.901 197.797 576.859 197.797C574.568 197.797 571.99 198.63 569.125 200.297C566.26 201.911 563.396 204.177 560.531 207.094C557.667 209.958 554.958 213.344 552.406 217.25C549.906 221.156 547.875 225.349 546.312 229.828Z" fill="#152545"/>
</g>
<g filter="url(#filter4_dd)">
<rect x="66" y="203" width="84" height="8" rx="4" fill="#152545"/>
</g>
<defs>
<filter id="filter0_dd" x="18.3521" y="41.8332" width="156.691" height="152.303" filterUnits="userSpaceOnUse" color-interpolation-filters="sRGB">
<feFlood flood-opacity="0" result="BackgroundImageFix"/>
<feColorMatrix in="SourceAlpha" type="matrix" values="0 0 0 0 0 0 0 0 0 0 0 0 0 0 0 0 0 0 127 0"/>
<feOffset dy="4"/>
<feGaussianBlur stdDeviation="2"/>
<feColorMatrix type="matrix" values="0 0 0 0 0 0 0 0 0 0 0 0 0 0 0 0 0 0 0.25 0"/>
<feBlend mode="normal" in2="BackgroundImageFix" result="effect1_dropShadow"/>
<feColorMatrix in="SourceAlpha" type="matrix" values="0 0 0 0 0 0 0 0 0 0 0 0 0 0 0 0 0 0 127 0"/>
<feOffset dy="4"/>
<feGaussianBlur stdDeviation="2"/>
<feColorMatrix type="matrix" values="0 0 0 0 0 0 0 0 0 0 0 0 0 0 0 0 0 0 0.25 0"/>
<feBlend mode="normal" in2="effect1_dropShadow" result="effect2_dropShadow"/>
<feBlend mode="normal" in="SourceGraphic" in2="effect2_dropShadow" result="shape"/>
</filter>
<filter id="filter1_dd" x="18.3521" y="206.833" width="156.691" height="152.303" filterUnits="userSpaceOnUse" color-interpolation-filters="sRGB">
<feFlood flood-opacity="0" result="BackgroundImageFix"/>
<feColorMatrix in="SourceAlpha" type="matrix" values="0 0 0 0 0 0 0 0 0 0 0 0 0 0 0 0 0 0 127 0"/>
<feOffset dy="4"/>
<feGaussianBlur stdDeviation="2"/>
<feColorMatrix type="matrix" values="0 0 0 0 0 0 0 0 0 0 0 0 0 0 0 0 0 0 0.25 0"/>
<feBlend mode="normal" in2="BackgroundImageFix" result="effect1_dropShadow"/>
<feColorMatrix in="SourceAlpha" type="matrix" values="0 0 0 0 0 0 0 0 0 0 0 0 0 0 0 0 0 0 127 0"/>
<feOffset dy="4"/>
<feGaussianBlur stdDeviation="2"/>
<feColorMatrix type="matrix" values="0 0 0 0 0 0 0 0 0 0 0 0 0 0 0 0 0 0 0.25 0"/>
<feBlend mode="normal" in2="effect1_dropShadow" result="effect2_dropShadow"/>
<feBlend mode="normal" in="SourceGraphic" in2="effect2_dropShadow" result="shape"/>
</filter>
<filter id="filter2_d" x="67" y="68" width="613" height="324.692" filterUnits="userSpaceOnUse" color-interpolation-filters="sRGB">
<feFlood flood-opacity="0" result="BackgroundImageFix"/>
<feColorMatrix in="SourceAlpha" type="matrix" values="0 0 0 0 0 0 0 0 0 0 0 0 0 0 0 0 0 0 127 0"/>
<feOffset dy="4"/>
<feGaussianBlur stdDeviation="2"/>
<feColorMatrix type="matrix" values="0 0 0 0 0 0 0 0 0 0 0 0 0 0 0 0 0 0 0.25 0"/>
<feBlend mode="normal" in2="BackgroundImageFix" result="effect1_dropShadow"/>
<feBlend mode="normal" in="SourceGraphic" in2="effect1_dropShadow" result="shape"/>
</filter>
<filter id="filter3_i" x="151.781" y="137.016" width="447.656" height="128.062" filterUnits="userSpaceOnUse" color-interpolation-filters="sRGB">
<feFlood flood-opacity="0" result="BackgroundImageFix"/>
<feBlend mode="normal" in="SourceGraphic" in2="BackgroundImageFix" result="shape"/>
<feColorMatrix in="SourceAlpha" type="matrix" values="0 0 0 0 0 0 0 0 0 0 0 0 0 0 0 0 0 0 127 0" result="hardAlpha"/>
<feOffset dy="4"/>
<feGaussianBlur stdDeviation="2"/>
<feComposite in2="hardAlpha" operator="arithmetic" k2="-1" k3="1"/>
<feColorMatrix type="matrix" values="0 0 0 0 1 0 0 0 0 1 0 0 0 0 1 0 0 0 0.25 0"/>
<feBlend mode="normal" in2="shape" result="effect1_innerShadow"/>
</filter>
<filter id="filter4_dd" x="62" y="203" width="92" height="16" filterUnits="userSpaceOnUse" color-interpolation-filters="sRGB">
<feFlood flood-opacity="0" result="BackgroundImageFix"/>
<feColorMatrix in="SourceAlpha" type="matrix" values="0 0 0 0 0 0 0 0 0 0 0 0 0 0 0 0 0 0 127 0"/>
<feOffset dy="4"/>
<feGaussianBlur stdDeviation="2"/>
<feColorMatrix type="matrix" values="0 0 0 0 0 0 0 0 0 0 0 0 0 0 0 0 0 0 0.25 0"/>
<feBlend mode="normal" in2="BackgroundImageFix" result="effect1_dropShadow"/>
<feColorMatrix in="SourceAlpha" type="matrix" values="0 0 0 0 0 0 0 0 0 0 0 0 0 0 0 0 0 0 127 0"/>
<feOffset dy="4"/>
<feGaussianBlur stdDeviation="2"/>
<feColorMatrix type="matrix" values="0 0 0 0 0 0 0 0 0 0 0 0 0 0 0 0 0 0 0.25 0"/>
<feBlend mode="normal" in2="effect1_dropShadow" result="effect2_dropShadow"/>
<feBlend mode="normal" in="SourceGraphic" in2="effect2_dropShadow" result="shape"/>
</filter>
</defs>
</svg>
