<svg width="146.5" height="31.25" viewBox="0 0 586 125" fill="none" xmlns="http://www.w3.org/2000/svg">
<g filter="url(#filter0_i)">
<path d="M224.734 124.078C221.349 124.078 217.911 123.766 214.422 123.141C210.984 122.568 207.495 121.786 203.953 120.797C200.412 119.859 196.87 118.818 193.328 117.672C189.786 116.526 186.297 115.406 182.859 114.312C178.745 116.812 174.448 118.766 169.969 120.172C165.49 121.63 160.776 122.359 155.828 122.359C151.609 122.359 148.38 121.604 146.141 120.094C143.901 118.583 142.781 116.578 142.781 114.078C142.781 110.797 144.604 108.271 148.25 106.5C151.896 104.729 157.417 103.844 164.812 103.844C168.042 103.844 171.297 104.078 174.578 104.547C177.859 105.016 181.193 105.615 184.578 106.344C187.859 103.479 190.984 100.25 193.953 96.6562C196.922 93.0625 199.812 89.2083 202.625 85.0938C200.49 85.3542 198.328 85.5625 196.141 85.7188C193.953 85.8229 191.74 85.875 189.5 85.875C181.323 85.875 174.031 84.9115 167.625 82.9844C161.219 81.0052 155.802 78.3229 151.375 74.9375C146.948 71.5 143.562 67.4896 141.219 62.9062C138.927 58.2708 137.781 53.2969 137.781 47.9844C137.781 41.7344 138.979 36.1875 141.375 31.3438C143.771 26.5 147.052 22.4375 151.219 19.1562C155.437 15.8229 160.385 13.2969 166.062 11.5781C171.74 9.80729 177.833 8.92188 184.344 8.92188C188.458 8.92188 192.208 9.23438 195.594 9.85938C198.979 10.4844 201.896 11.1615 204.344 11.8906C206.844 12.6198 208.797 13.3229 210.203 14C211.609 14.6771 212.391 15.0417 212.547 15.0938L210.516 18.6094C210.464 18.6094 209.812 18.3229 208.562 17.75C207.312 17.125 205.594 16.474 203.406 15.7969C201.219 15.1198 198.615 14.4948 195.594 13.9219C192.573 13.349 189.318 13.0625 185.828 13.0625C179.682 13.0625 174.161 13.974 169.266 15.7969C164.422 17.5677 160.307 20.0156 156.922 23.1406C153.588 26.2656 151.01 29.9375 149.188 34.1562C147.417 38.3229 146.531 42.776 146.531 47.5156C146.531 52.8281 147.755 57.5938 150.203 61.8125C152.651 65.9792 155.932 69.5208 160.047 72.4375C164.161 75.3021 168.927 77.4896 174.344 79C179.812 80.5104 185.542 81.2656 191.531 81.2656C193.979 81.2656 196.375 81.1875 198.719 81.0312C201.115 80.875 203.484 80.6146 205.828 80.25C209.526 74.4688 213.094 68.4792 216.531 62.2812C220.021 56.0833 223.484 50.0156 226.922 44.0781C230.359 38.1406 233.823 32.5156 237.312 27.2031C240.802 21.8385 244.422 17.151 248.172 13.1406C251.974 9.13021 255.958 5.95312 260.125 3.60938C264.292 1.21354 268.771 0.015625 273.562 0.015625C275.438 0.015625 277.182 0.328125 278.797 0.953125C280.411 1.52604 281.818 2.4375 283.016 3.6875C284.214 4.88542 285.151 6.42188 285.828 8.29688C286.505 10.1719 286.844 12.3594 286.844 14.8594C286.844 18.9219 286.062 23.2188 284.5 27.75C282.938 32.2292 280.672 36.7344 277.703 41.2656C274.734 45.7448 271.115 50.1719 266.844 54.5469C262.573 58.8698 257.729 62.8802 252.312 66.5781C246.896 70.276 240.958 73.5833 234.5 76.5C228.042 79.3646 221.167 81.6042 213.875 83.2188C210.438 87.9583 206.896 92.4375 203.25 96.6562C199.604 100.823 195.75 104.599 191.688 107.984C195.646 109.026 199.526 110.146 203.328 111.344C207.13 112.49 210.724 113.531 214.109 114.469C217.547 115.458 220.724 116.266 223.641 116.891C226.557 117.568 229.135 117.906 231.375 117.906C234.708 117.906 237.911 117.333 240.984 116.188C244.109 115.042 247.208 113.01 250.281 110.094L253.484 112.594C253.432 112.646 253.146 112.984 252.625 113.609C252.104 114.182 251.323 114.885 250.281 115.719C249.24 116.604 247.938 117.516 246.375 118.453C244.812 119.443 242.964 120.354 240.828 121.188C238.745 122.021 236.349 122.698 233.641 123.219C230.984 123.792 228.016 124.078 224.734 124.078ZM273.875 4.3125C270.958 4.3125 268.068 5.35417 265.203 7.4375C262.339 9.52083 259.448 12.3594 256.531 15.9531C253.615 19.4948 250.646 23.6875 247.625 28.5312C244.656 33.3229 241.583 38.4531 238.406 43.9219C235.229 49.3385 231.922 54.9375 228.484 60.7188C225.047 66.5 221.453 72.1771 217.703 77.75C223.953 76.0312 229.891 73.7917 235.516 71.0312C241.193 68.2708 246.427 65.1719 251.219 61.7344C256.062 58.2969 260.411 54.625 264.266 50.7188C268.172 46.7604 271.479 42.724 274.188 38.6094C276.948 34.4948 279.057 30.4323 280.516 26.4219C281.974 22.3594 282.703 18.4792 282.703 14.7812C282.703 12.8542 282.469 11.2396 282 9.9375C281.531 8.58333 280.88 7.48958 280.047 6.65625C279.266 5.82292 278.328 5.22396 277.234 4.85938C276.193 4.49479 275.073 4.3125 273.875 4.3125ZM155.359 118.297C159.213 118.297 162.859 117.75 166.297 116.656C169.734 115.615 173.068 114.156 176.297 112.281C172.859 111.292 169.526 110.484 166.297 109.859C163.12 109.234 160.047 108.922 157.078 108.922C153.537 108.922 150.932 109.443 149.266 110.484C147.651 111.526 146.844 112.724 146.844 114.078C146.844 114.495 146.948 114.938 147.156 115.406C147.417 115.927 147.859 116.396 148.484 116.812C149.109 117.229 149.969 117.568 151.062 117.828C152.156 118.141 153.588 118.297 155.359 118.297ZM301.375 96.9688C298.979 99.7812 296.609 102.385 294.266 104.781C291.922 107.125 289.578 109.156 287.234 110.875C284.943 112.542 282.651 113.844 280.359 114.781C278.068 115.771 275.75 116.266 273.406 116.266C271.427 116.266 269.63 115.901 268.016 115.172C266.453 114.495 265.099 113.531 263.953 112.281C262.755 110.979 261.844 109.417 261.219 107.594C260.594 105.719 260.281 103.635 260.281 101.344C260.281 97.75 261.089 94.0521 262.703 90.25C264.266 86.4479 266.245 82.75 268.641 79.1562C271.089 75.5625 273.771 72.151 276.688 68.9219C279.656 65.6927 282.469 62.8281 285.125 60.3281L288.484 62.6719C286.609 65.4323 284.5 68.5573 282.156 72.0469C279.865 75.5365 277.677 79.1562 275.594 82.9062C273.562 86.6042 271.844 90.3281 270.438 94.0781C269.031 97.776 268.328 101.214 268.328 104.391C268.328 106.526 268.719 108.349 269.5 109.859C270.333 111.37 271.896 112.125 274.188 112.125C276.688 112.125 279.422 111.135 282.391 109.156C285.411 107.177 288.484 104.599 291.609 101.422C294.786 98.2448 297.938 94.6771 301.062 90.7188C304.24 86.7083 307.234 82.6719 310.047 78.6094C312.859 74.5469 315.411 70.6667 317.703 66.9688C320.047 63.2708 321.948 60.1198 323.406 57.5156L329.109 60.3281C326.089 66.2656 323.172 71.8125 320.359 76.9688C317.599 82.0729 315.125 86.6823 312.938 90.7969C310.802 94.8594 309.083 98.401 307.781 101.422C306.531 104.443 305.906 106.839 305.906 108.609C305.906 109.339 306.062 109.938 306.375 110.406C306.688 110.875 307.182 111.109 307.859 111.109C309.786 111.161 311.896 110.328 314.188 108.609C316.531 106.891 318.875 104.729 321.219 102.125C323.615 99.5208 325.932 96.6823 328.172 93.6094C330.464 90.4844 332.521 87.5677 334.344 84.8594L337.156 87.0469C336.844 87.5677 336.193 88.6354 335.203 90.25C334.214 91.8646 332.99 93.7135 331.531 95.7969C330.073 97.8802 328.406 100.068 326.531 102.359C324.656 104.651 322.677 106.76 320.594 108.688C318.51 110.562 316.349 112.125 314.109 113.375C311.87 114.573 309.656 115.172 307.469 115.172C306.115 115.172 304.891 114.938 303.797 114.469C302.755 114 301.87 113.375 301.141 112.594C300.411 111.812 299.839 110.901 299.422 109.859C299.005 108.818 298.797 107.724 298.797 106.578C298.797 105.224 299.005 103.74 299.422 102.125C299.891 100.51 300.542 98.7917 301.375 96.9688ZM367.547 89.0781C367.443 85.3281 367.417 81.8385 367.469 78.6094C367.521 75.3281 367.417 72.4896 367.156 70.0938C366.948 67.6458 366.479 65.7188 365.75 64.3125C365.021 62.9062 363.849 62.2031 362.234 62.2031C360.828 62.2031 359.344 62.6458 357.781 63.5312C356.219 64.3646 354.656 65.4844 353.094 66.8906C351.531 68.2448 349.969 69.8073 348.406 71.5781C346.844 73.349 345.359 75.1719 343.953 77.0469C342.599 78.8698 341.323 80.6667 340.125 82.4375C338.979 84.1562 337.99 85.6927 337.156 87.0469L334.344 84.8594C335.125 83.6615 336.089 82.1771 337.234 80.4062C338.38 78.6354 339.656 76.7604 341.062 74.7812C342.521 72.8021 344.083 70.8229 345.75 68.8438C347.417 66.8646 349.161 65.0938 350.984 63.5312C352.807 61.9167 354.682 60.6146 356.609 59.625C358.536 58.6354 360.49 58.1406 362.469 58.1406C364.344 58.1406 366.036 58.401 367.547 58.9219C369.109 59.4427 370.464 60.4583 371.609 61.9688C372.755 63.4271 373.693 65.5104 374.422 68.2188C375.203 70.875 375.724 74.3385 375.984 78.6094C378.901 74.9635 381.479 71.8125 383.719 69.1562C386.01 66.5 388.094 64.3125 389.969 62.5938C391.896 60.875 393.667 59.599 395.281 58.7656C396.896 57.9323 398.484 57.5156 400.047 57.5156C401.661 57.5156 402.938 57.776 403.875 58.2969C404.812 58.8177 405.542 59.4427 406.062 60.1719C406.583 60.849 406.922 61.5521 407.078 62.2812C407.234 63.0104 407.312 63.6094 407.312 64.0781C407.312 65.4323 406.948 66.6302 406.219 67.6719C405.49 68.7135 404.448 69.2344 403.094 69.2344C401.792 69.2344 400.75 68.7917 399.969 67.9062C399.188 66.9688 398.797 65.901 398.797 64.7031C398.797 64.4427 398.823 64 398.875 63.375C398.979 62.75 399.161 62.125 399.422 61.5C398.276 61.5 396.948 62.0469 395.438 63.1406C393.979 64.2344 392.286 65.7969 390.359 67.8281C388.484 69.8594 386.375 72.3333 384.031 75.25C381.688 78.1146 379.083 81.3438 376.219 84.9375C376.323 89.9896 376.427 94.3646 376.531 98.0625C376.688 101.76 376.922 104.833 377.234 107.281C377.599 109.677 378.12 111.474 378.797 112.672C379.526 113.87 380.516 114.469 381.766 114.469C383.328 114.469 384.969 113.948 386.688 112.906C388.458 111.865 390.229 110.51 392 108.844C393.771 107.125 395.516 105.198 397.234 103.062C399.005 100.927 400.672 98.7656 402.234 96.5781C403.797 94.3906 405.229 92.2812 406.531 90.25C407.885 88.1667 409.031 86.3698 409.969 84.8594L412.781 87.0469C412.417 87.6719 411.688 88.8958 410.594 90.7188C409.5 92.5417 408.146 94.651 406.531 97.0469C404.917 99.3906 403.068 101.865 400.984 104.469C398.901 107.073 396.714 109.469 394.422 111.656C392.13 113.792 389.76 115.562 387.312 116.969C384.865 118.375 382.469 119.078 380.125 119.078C378.042 119.078 376.271 118.714 374.812 117.984C373.354 117.307 372.13 116.083 371.141 114.312C370.151 112.542 369.396 110.146 368.875 107.125C368.354 104.104 367.99 100.276 367.781 95.6406C364.865 99.2344 362.156 102.49 359.656 105.406C357.156 108.271 354.76 110.719 352.469 112.75C350.177 114.729 347.964 116.24 345.828 117.281C343.745 118.375 341.688 118.922 339.656 118.922C336.844 118.922 334.656 118.141 333.094 116.578C331.531 115.068 330.75 113.141 330.75 110.797C330.75 109.703 331.115 108.661 331.844 107.672C332.521 106.63 333.51 106.109 334.812 106.109C335.958 106.109 336.974 106.604 337.859 107.594C338.797 108.583 339.266 109.755 339.266 111.109C339.266 111.682 339.188 112.333 339.031 113.062C338.875 113.792 338.615 114.443 338.25 115.016C338.406 115.12 338.615 115.172 338.875 115.172C339.135 115.224 339.396 115.25 339.656 115.25C341.427 115.25 343.354 114.573 345.438 113.219C347.573 111.865 349.812 110.016 352.156 107.672C354.5 105.328 356.948 102.594 359.5 99.4688C362.104 96.3438 364.786 92.9844 367.547 89.3906V89.0781ZM446.375 96.9688C443.979 99.7812 441.609 102.385 439.266 104.781C436.922 107.125 434.578 109.156 432.234 110.875C429.943 112.542 427.651 113.844 425.359 114.781C423.068 115.771 420.75 116.266 418.406 116.266C416.427 116.266 414.63 115.901 413.016 115.172C411.453 114.495 410.099 113.531 408.953 112.281C407.755 110.979 406.844 109.417 406.219 107.594C405.594 105.719 405.281 103.635 405.281 101.344C405.281 97.75 406.089 94.0521 407.703 90.25C409.266 86.4479 411.245 82.75 413.641 79.1562C416.089 75.5625 418.771 72.151 421.688 68.9219C424.656 65.6927 427.469 62.8281 430.125 60.3281L433.484 62.6719C431.609 65.4323 429.5 68.5573 427.156 72.0469C424.865 75.5365 422.677 79.1562 420.594 82.9062C418.562 86.6042 416.844 90.3281 415.438 94.0781C414.031 97.776 413.328 101.214 413.328 104.391C413.328 106.526 413.719 108.349 414.5 109.859C415.333 111.37 416.896 112.125 419.188 112.125C421.688 112.125 424.422 111.135 427.391 109.156C430.411 107.177 433.484 104.599 436.609 101.422C439.786 98.2448 442.938 94.6771 446.062 90.7188C449.24 86.7083 452.234 82.6719 455.047 78.6094C457.859 74.5469 460.411 70.6667 462.703 66.9688C465.047 63.2708 466.948 60.1198 468.406 57.5156L474.109 60.3281C471.089 66.2656 468.172 71.8125 465.359 76.9688C462.599 82.0729 460.125 86.6823 457.938 90.7969C455.802 94.8594 454.083 98.401 452.781 101.422C451.531 104.443 450.906 106.839 450.906 108.609C450.906 109.339 451.062 109.938 451.375 110.406C451.688 110.875 452.182 111.109 452.859 111.109C454.786 111.161 456.896 110.328 459.188 108.609C461.531 106.891 463.875 104.729 466.219 102.125C468.615 99.5208 470.932 96.6823 473.172 93.6094C475.464 90.4844 477.521 87.5677 479.344 84.8594L482.156 87.0469C481.844 87.5677 481.193 88.6354 480.203 90.25C479.214 91.8646 477.99 93.7135 476.531 95.7969C475.073 97.8802 473.406 100.068 471.531 102.359C469.656 104.651 467.677 106.76 465.594 108.688C463.51 110.562 461.349 112.125 459.109 113.375C456.87 114.573 454.656 115.172 452.469 115.172C451.115 115.172 449.891 114.938 448.797 114.469C447.755 114 446.87 113.375 446.141 112.594C445.411 111.812 444.839 110.901 444.422 109.859C444.005 108.818 443.797 107.724 443.797 106.578C443.797 105.224 444.005 103.74 444.422 102.125C444.891 100.51 445.542 98.7917 446.375 96.9688ZM528.641 87.0469C527.859 88.1927 526.922 89.7552 525.828 91.7344C524.786 93.6615 523.562 95.7708 522.156 98.0625C520.75 100.302 519.188 102.594 517.469 104.938C515.802 107.281 513.953 109.391 511.922 111.266C509.943 113.141 507.781 114.677 505.438 115.875C503.094 117.073 500.594 117.672 497.938 117.672C496.479 117.672 495.099 117.438 493.797 116.969C492.495 116.552 491.349 115.875 490.359 114.938C489.37 114 488.589 112.854 488.016 111.5C487.443 110.094 487.156 108.453 487.156 106.578C487.156 104.026 487.651 101.37 488.641 98.6094C489.682 95.7969 490.88 93.0885 492.234 90.4844C493.589 87.8802 494.943 85.5104 496.297 83.375C497.651 81.1875 498.641 79.4427 499.266 78.1406C499.891 76.8385 500.203 75.7188 500.203 74.7812C500.203 74.1042 499.969 73.5052 499.5 72.9844C499.083 72.4635 498.536 71.9688 497.859 71.5C497.234 70.9792 496.557 70.4583 495.828 69.9375C495.151 69.3646 494.578 68.6875 494.109 67.9062C492.807 69.9896 491.479 72.099 490.125 74.2344C488.927 76.0573 487.625 78.1146 486.219 80.4062C484.812 82.6458 483.458 84.8594 482.156 87.0469L479.344 84.8594L496.062 58.6875L498.328 59.8594C498.224 60.1719 498.042 60.6667 497.781 61.3438C497.573 62.0208 497.469 62.75 497.469 63.5312C497.469 64.1042 497.547 64.6771 497.703 65.25C497.911 65.7708 498.302 66.2656 498.875 66.7344C500.958 68.6094 502.599 70.0677 503.797 71.1094C504.995 72.099 505.854 72.9062 506.375 73.5312C506.948 74.1042 507.286 74.599 507.391 75.0156C507.547 75.3802 507.625 75.875 507.625 76.5C507.625 77.125 507.521 77.8802 507.312 78.7656C507.104 79.651 506.74 80.7188 506.219 81.9688C505.75 83.2188 505.073 84.7031 504.188 86.4219C503.354 88.0885 502.286 90.0417 500.984 92.2812C500.203 93.6354 499.422 95.0156 498.641 96.4219C497.911 97.776 497.234 99.1562 496.609 100.562C496.036 101.969 495.568 103.375 495.203 104.781C494.839 106.188 494.656 107.542 494.656 108.844C494.656 109.833 494.786 110.641 495.047 111.266C495.359 111.839 495.75 112.281 496.219 112.594C496.688 112.906 497.182 113.115 497.703 113.219C498.276 113.323 498.823 113.375 499.344 113.375C501.062 113.375 502.755 112.88 504.422 111.891C506.141 110.849 507.807 109.521 509.422 107.906C511.089 106.292 512.677 104.469 514.188 102.438C515.75 100.354 517.234 98.2448 518.641 96.1094C520.047 93.974 521.349 91.9427 522.547 90.0156C523.745 88.0365 524.812 86.3177 525.75 84.8594L528.641 87.0469ZM531.688 96.1875C531.583 96.8125 531.505 97.4375 531.453 98.0625C531.401 98.6875 531.375 99.3125 531.375 99.9375C531.375 101.812 531.635 103.609 532.156 105.328C532.729 106.995 533.536 108.479 534.578 109.781C535.672 111.031 537 112.021 538.562 112.75C540.177 113.479 542 113.844 544.031 113.844C550.854 113.844 557.443 111.526 563.797 106.891C570.151 102.255 576.479 94.9115 582.781 84.8594L585.438 87.2031C582 92.9323 578.51 97.776 574.969 101.734C571.427 105.641 567.885 108.818 564.344 111.266C560.854 113.714 557.417 115.484 554.031 116.578C550.646 117.672 547.417 118.219 544.344 118.219C542.104 118.219 539.734 117.906 537.234 117.281C534.734 116.656 532.417 115.615 530.281 114.156C528.198 112.698 526.479 110.745 525.125 108.297C523.719 105.849 523.016 102.802 523.016 99.1562C523.016 95.25 523.693 91.5 525.047 87.9062C526.349 84.2604 528.068 80.875 530.203 77.75C532.339 74.625 534.786 71.7865 537.547 69.2344C540.307 66.6302 543.094 64.4167 545.906 62.5938C548.771 60.7708 551.557 59.3646 554.266 58.375C556.974 57.3333 559.37 56.8125 561.453 56.8125C562.807 56.8125 564.188 57.0208 565.594 57.4375C567 57.8542 568.25 58.5052 569.344 59.3906C570.49 60.276 571.401 61.4479 572.078 62.9062C572.807 64.3646 573.172 66.1094 573.172 68.1406C573.172 70.901 572.521 73.5052 571.219 75.9531C569.969 78.349 568.276 80.5885 566.141 82.6719C564.005 84.7031 561.531 86.5521 558.719 88.2188C555.906 89.8333 552.964 91.2135 549.891 92.3594C546.818 93.5052 543.719 94.4167 540.594 95.0938C537.469 95.7708 534.5 96.1354 531.688 96.1875ZM532.312 92.8281C535.802 92.4635 539.083 91.7344 542.156 90.6406C545.229 89.5469 548.042 88.2188 550.594 86.6562C553.146 85.0417 555.411 83.2969 557.391 81.4219C559.422 79.5469 561.115 77.6458 562.469 75.7188C563.823 73.7917 564.865 71.9427 565.594 70.1719C566.323 68.401 566.688 66.8125 566.688 65.4062C566.688 64 566.297 62.8802 565.516 62.0469C564.786 61.2135 563.901 60.7969 562.859 60.7969C560.568 60.7969 557.99 61.6302 555.125 63.2969C552.26 64.9115 549.396 67.1771 546.531 70.0938C543.667 72.9583 540.958 76.3438 538.406 80.25C535.906 84.1562 533.875 88.349 532.312 92.8281Z" fill="#fff"/>
</g>
<g filter="url(#filter1_i)">
<path fill-rule="evenodd" clip-rule="evenodd" d="M127.306 52.25L63.6529 5L0 52.25H13.1529V120H56.1529V93H71.1529V120H113.153V52.25H127.306Z" fill="#fff"/>
</g>
<defs>
<filter id="filter0_i" x="137.781" y="0.015625" width="447.657" height="128.062" filterUnits="userSpaceOnUse" color-interpolation-filters="sRGB">
<feFlood flood-opacity="0" result="BackgroundImageFix"/>
<feBlend mode="normal" in="SourceGraphic" in2="BackgroundImageFix" result="shape"/>
<feColorMatrix in="SourceAlpha" type="matrix" values="0 0 0 0 0 0 0 0 0 0 0 0 0 0 0 0 0 0 127 0" result="hardAlpha"/>
<feOffset dy="4"/>
<feGaussianBlur stdDeviation="2"/>
<feComposite in2="hardAlpha" operator="arithmetic" k2="-1" k3="1"/>
<feColorMatrix type="matrix" values="0 0 0 0 1 0 0 0 0 1 0 0 0 0 1 0 0 0 0.25 0"/>
<feBlend mode="normal" in2="shape" result="effect1_innerShadow"/>
</filter>
<filter id="filter1_i" x="0" y="5" width="127.306" height="119" filterUnits="userSpaceOnUse" color-interpolation-filters="sRGB">
<feFlood flood-opacity="0" result="BackgroundImageFix"/>
<feBlend mode="normal" in="SourceGraphic" in2="BackgroundImageFix" result="shape"/>
<feColorMatrix in="SourceAlpha" type="matrix" values="0 0 0 0 0 0 0 0 0 0 0 0 0 0 0 0 0 0 127 0" result="hardAlpha"/>
<feOffset dy="4"/>
<feGaussianBlur stdDeviation="2"/>
<feComposite in2="hardAlpha" operator="arithmetic" k2="-1" k3="1"/>
<feColorMatrix type="matrix" values="0 0 0 0 1 0 0 0 0 1 0 0 0 0 1 0 0 0 0.25 0"/>
<feBlend mode="normal" in2="shape" result="effect1_innerShadow"/>
</filter>
</defs>
</svg>
